<svg width="40" height="40" viewBox="0 0 40 40" fill="none" xmlns="http://www.w3.org/2000/svg">
<path d="M10.7486 20.1109C13.4317 17.52 16.9271 16.2792 20.3906 16.3667C19.9057 14.9854 19.1326 13.682 18.0482 12.5591C14.021 8.38865 7.37546 8.27254 3.20537 12.2994C-0.96503 16.3266 -1.08114 22.9721 2.94603 27.1425C4.03045 28.2655 5.30573 29.0834 6.66955 29.6165C6.70305 26.152 8.06519 22.7022 10.7486 20.1109Z" fill="#FE633D"/>
<path d="M20.1458 29.2514C17.5548 26.5683 16.3141 23.0729 16.4025 19.6085C15.0203 20.0943 13.7169 20.8674 12.5939 21.9518C8.42353 25.979 8.30742 32.6245 12.3343 36.7946C16.3615 40.965 23.007 41.0811 27.1774 37.054C28.3004 35.9696 29.1183 34.6943 29.6524 33.3295C26.1869 33.297 22.737 31.9348 20.1458 29.2514Z" fill="#FC8064"/>
<path d="M37.0543 12.8563C35.9699 11.7333 34.6946 10.9154 33.3299 10.3813C33.2973 13.8468 31.9351 17.2966 29.2517 19.8879C26.5686 22.4788 23.0733 23.7196 19.6088 23.6311C20.0946 25.0134 20.8677 26.3168 21.9522 27.4398C25.9793 31.6102 32.6249 31.7263 36.7949 27.6994C40.9654 23.6722 41.0815 17.0267 37.0543 12.8563Z" fill="#F99E89"/>
<path d="M19.9228 10.7486C22.5137 13.4317 23.7545 16.9271 23.667 20.3906C25.0482 19.9057 26.3516 19.1326 27.4746 18.0482C31.645 14.021 31.7611 7.37546 27.7343 3.20537C23.7071 -0.96503 17.0616 -1.08114 12.8912 2.94603C11.7682 4.03045 10.9503 5.30573 10.4171 6.66955C13.8816 6.70305 17.3315 8.06519 19.9228 10.7486Z" fill="#F7BAAD"/>
</svg>
