<svg width="40" height="40" viewBox="0 0 512 512" fill="none" xmlns="http://www.w3.org/2000/svg">
<path d="M0 128C0 57.3076 57.3076 0 128 0H384C454.692 0 512 57.3076 512 128V384C512 454.692 454.692 512 384 512H128C57.3076 512 0 454.692 0 384V128Z" fill="#1E4593"/>
<path d="M158.024 312.44C149.264 312.44 141.584 310.4 134.984 306.32C128.504 302.12 123.464 296.48 119.864 289.4C116.264 282.32 114.464 274.52 114.464 266C114.464 257.36 116.264 249.56 119.864 242.6C123.464 235.52 128.504 229.94 134.984 225.86C141.584 221.66 149.264 219.56 158.024 219.56C165.464 219.56 171.824 221 177.104 223.88C182.504 226.76 186.884 230.66 190.244 235.58V185H203.744V311H190.244V296.6C186.884 301.4 182.504 305.24 177.104 308.12C171.824 311 165.464 312.44 158.024 312.44ZM159.824 300.2C166.544 300.2 172.184 298.64 176.744 295.52C181.424 292.4 184.964 288.26 187.364 283.1C189.764 277.82 190.964 272.12 190.964 266C190.964 259.76 189.764 254.06 187.364 248.9C184.964 243.74 181.424 239.6 176.744 236.48C172.184 233.36 166.544 231.8 159.824 231.8C153.224 231.8 147.524 233.36 142.724 236.48C137.924 239.6 134.264 243.74 131.744 248.9C129.224 254.06 127.964 259.76 127.964 266C127.964 272.12 129.224 277.82 131.744 283.1C134.264 288.26 137.924 292.4 142.724 295.52C147.524 298.64 153.224 300.2 159.824 300.2Z" fill="white"/>
<path d="M267.055 312.44C257.935 312.44 249.955 310.4 243.115 306.32C236.275 302.12 230.935 296.48 227.095 289.4C223.375 282.32 221.515 274.52 221.515 266C221.515 257.36 223.315 249.56 226.915 242.6C230.515 235.52 235.675 229.94 242.395 225.86C249.115 221.66 257.035 219.56 266.155 219.56C275.395 219.56 283.315 221.66 289.915 225.86C296.635 229.94 301.795 235.52 305.395 242.6C308.995 249.56 310.795 257.36 310.795 266V271.4H235.375C236.095 276.68 237.775 281.54 240.415 285.98C243.175 290.3 246.835 293.78 251.395 296.42C255.955 298.94 261.235 300.2 267.235 300.2C273.595 300.2 278.935 298.82 283.255 296.06C287.575 293.18 290.935 289.52 293.335 285.08H308.095C304.975 293.12 299.995 299.72 293.155 304.88C286.435 309.92 277.735 312.44 267.055 312.44ZM235.555 258.8H296.755C295.555 251.12 292.315 244.7 287.035 239.54C281.755 234.38 274.795 231.8 266.155 231.8C257.515 231.8 250.555 234.38 245.275 239.54C240.115 244.7 236.875 251.12 235.555 258.8Z" fill="white"/>
<path d="M351.77 311L316.49 221H331.25L359.69 296.6L387.95 221H402.71L367.61 311H351.77Z" fill="white"/>
</svg>
