<svg width="40" height="40" viewBox="0 0 40 40" fill="none" xmlns="http://www.w3.org/2000/svg">
<path fill-rule="evenodd" clip-rule="evenodd" d="M20.0001 40C31.0458 40 40 31.0458 40 20.0001C40 8.95432 31.0458 0 20.0001 0C8.95432 0 0 8.95432 0 20.0001C0 31.0458 8.95432 40 20.0001 40Z" fill="#FE633D"/>
<path fill-rule="evenodd" clip-rule="evenodd" d="M32.7809 31.6765H27.7582V23.122C27.7582 20.7766 26.867 19.4658 25.0107 19.4658C22.9911 19.4658 21.9361 20.8299 21.9361 23.122V31.6765H17.0956V15.3802H21.9361V17.5754C21.9361 17.5754 23.3913 14.8824 26.8496 14.8824C30.3062 14.8824 32.7809 16.9931 32.7809 21.3587V31.6765ZM11.3211 13.2464C9.67236 13.2464 8.33636 11.8999 8.33636 10.2392C8.33636 8.57857 9.67236 7.23207 11.3211 7.23207C12.9698 7.23207 14.305 8.57857 14.305 10.2392C14.305 11.8999 12.9698 13.2464 11.3211 13.2464ZM8.82173 31.6765H13.8689V15.3802H8.82173V31.6765Z" fill="#191919"/>
</svg>
