<svg width="156" height="40" viewBox="0 0 156 40" fill="none" xmlns="http://www.w3.org/2000/svg">
<path d="M10.7486 20.1109C13.4317 17.52 16.9271 16.2792 20.3906 16.3667C19.9057 14.9854 19.1326 13.682 18.0482 12.5591C14.021 8.38865 7.37546 8.27254 3.20537 12.2994C-0.96503 16.3266 -1.08114 22.9721 2.94603 27.1425C4.03045 28.2655 5.30573 29.0834 6.66955 29.6165C6.70305 26.152 8.06519 22.7022 10.7486 20.1109Z" fill="#FE633D"/>
<path d="M20.1458 29.2514C17.5548 26.5683 16.3141 23.0729 16.4025 19.6085C15.0203 20.0943 13.7169 20.8674 12.5939 21.9518C8.42353 25.979 8.30742 32.6245 12.3343 36.7946C16.3615 40.965 23.007 41.0811 27.1774 37.054C28.3004 35.9696 29.1183 34.6943 29.6524 33.3295C26.1869 33.297 22.737 31.9348 20.1458 29.2514Z" fill="#FC8064"/>
<path d="M37.0543 12.8563C35.9699 11.7333 34.6946 10.9154 33.3299 10.3813C33.2973 13.8468 31.9351 17.2966 29.2517 19.8879C26.5686 22.4788 23.0733 23.7196 19.6088 23.6311C20.0946 25.0134 20.8677 26.3168 21.9522 27.4398C25.9793 31.6102 32.6249 31.7263 36.7949 27.6994C40.9654 23.6722 41.0815 17.0267 37.0543 12.8563Z" fill="#F99E89"/>
<path d="M19.9228 10.7486C22.5137 13.4317 23.7545 16.9271 23.667 20.3906C25.0482 19.9057 26.3516 19.1326 27.4746 18.0482C31.645 14.021 31.7611 7.37546 27.7343 3.20537C23.7071 -0.96503 17.0616 -1.08114 12.8912 2.94603C11.7682 4.03045 10.9503 5.30573 10.4171 6.66955C13.8816 6.70305 17.3315 8.06519 19.9228 10.7486Z" fill="#F7BAAD"/>
<path d="M51.7796 24.1578V19.5331V14.9084H50.6218V12.9587H52.0192L52.5715 9.09251H54.5212V12.9587H56.9034V14.9084H54.5212V24.3974C54.5212 24.7212 54.5515 24.983 54.6121 25.1826C54.6742 25.3807 54.7592 25.536 54.8672 25.6484C54.9751 25.7593 55.1016 25.8332 55.2465 25.8702C55.3914 25.9057 55.543 25.9234 55.7012 25.9234C55.9688 25.9234 56.2054 25.8909 56.411 25.8258C56.6165 25.7608 56.8132 25.6706 57.001 25.5552V27.0724C56.8413 27.2676 56.6698 27.4266 56.4864 27.5493C56.3016 27.672 56.1123 27.7711 55.9186 27.8465C55.7234 27.9219 55.5245 27.9744 55.3219 28.004C55.1193 28.0321 54.9204 28.0461 54.7252 28.0461C54.3437 28.0461 53.9755 27.9959 53.6206 27.8953C53.2672 27.7933 52.9537 27.6003 52.6801 27.3164C52.4051 27.031 52.1862 26.6354 52.0236 26.1297C51.8609 25.624 51.7796 24.9667 51.7796 24.1578ZM58.7775 27.8731V12.9587H60.7804L61.02 14.4758C61.3231 13.9124 61.6713 13.4903 62.0647 13.2093C62.458 12.9269 62.8602 12.7856 63.2713 12.7856C64.058 12.7856 64.6392 13.0274 65.0148 13.511C65.3904 13.996 65.5782 14.722 65.5782 15.6891C65.5782 15.8119 65.5693 15.9583 65.5515 16.1283C65.5338 16.2969 65.5086 16.4736 65.4761 16.6584C65.4436 16.8418 65.4037 17.0259 65.3563 17.2107C65.309 17.3941 65.2602 17.5619 65.2099 17.7143H63.3046V16.3279C63.3046 16.0248 63.2846 15.7756 63.2447 15.5804C63.2048 15.3853 63.1523 15.2285 63.0872 15.1102C63.0222 14.9904 62.9467 14.9069 62.861 14.8596C62.7737 14.8137 62.6798 14.7908 62.5793 14.7908C62.3619 14.7908 62.1615 14.861 61.9782 15.0015C61.7933 15.142 61.6396 15.3387 61.5168 15.5915V27.8731H58.7775ZM66.1408 27.8731V26.509L70.3219 15.0392H66.5001V12.9587H73.2564V14.325L69.0665 25.7926H73.2786V27.8731H66.1408ZM77.5787 26.8883L77.6652 28.7182V32.6931H74.9258V12.9587H77.0707L77.3191 14.5291C77.4419 14.328 77.5883 14.1224 77.7583 13.9124C77.9269 13.7025 78.1251 13.5169 78.3528 13.3557C78.5805 13.193 78.8371 13.0592 79.1225 12.9542C79.4078 12.8492 79.7273 12.7967 80.0807 12.7967C80.233 12.7967 80.4156 12.8115 80.6285 12.8411C80.8415 12.8692 81.0611 12.9409 81.2873 13.0563C81.515 13.1716 81.7428 13.3431 81.9705 13.5709C82.1982 13.7986 82.4001 14.1113 82.576 14.5091C82.7535 14.9054 82.8984 15.4 83.0108 15.993C83.1217 16.5845 83.1771 17.3024 83.1771 18.1468V22.6628C83.1771 23.5087 83.1217 24.2273 83.0108 24.8188C82.8984 25.4103 82.752 25.9049 82.5716 26.3027C82.3912 26.7005 82.1856 27.0147 81.955 27.2454C81.7228 27.4761 81.4877 27.6491 81.2496 27.7645C81.0115 27.8798 80.7809 27.9537 80.5576 27.9863C80.3328 28.0188 80.1376 28.0351 79.972 28.0351C79.3953 28.0351 78.9132 27.9234 78.5258 27.7001C78.1398 27.4768 77.8241 27.2062 77.5787 26.8883ZM77.6652 15.8178V24.8299C77.7228 24.9748 77.7931 25.1116 77.8759 25.2403C77.9587 25.3704 78.0563 25.4865 78.1687 25.5885C78.2811 25.6891 78.4075 25.7704 78.548 25.8325C78.6884 25.8931 78.8526 25.9234 79.0404 25.9234C79.243 25.9234 79.4271 25.8857 79.5927 25.8103C79.7598 25.7349 79.9047 25.5974 80.0274 25.3977C80.1502 25.1996 80.2456 24.9238 80.3136 24.5704C80.3816 24.2155 80.4156 23.7608 80.4156 23.2063V17.4969C80.4156 16.9409 80.3816 16.4876 80.3136 16.1372C80.2456 15.7882 80.1517 15.5124 80.0319 15.3098C79.9121 15.1073 79.7694 14.9697 79.6038 14.8973C79.4382 14.8263 79.2541 14.7908 79.0515 14.7908C78.7055 14.7908 78.4223 14.8936 78.2019 15.0991C77.9816 15.3047 77.8027 15.5442 77.6652 15.8178ZM87.1098 10.8248C86.6041 10.8248 86.2048 10.6733 85.912 10.3701C85.6207 10.067 85.4751 9.62338 85.4751 9.03928C85.4751 8.71396 85.5128 8.44113 85.5882 8.2208C85.6636 8.00047 85.7715 7.82376 85.912 7.69068C86.054 7.55759 86.2255 7.46 86.4266 7.39789C86.6292 7.33726 86.8606 7.30695 87.1209 7.30695C87.6621 7.30695 88.0732 7.44373 88.3541 7.71729C88.6366 7.99234 88.7778 8.433 88.7778 9.03928C88.7778 9.60268 88.6351 10.0411 88.3497 10.3546C88.0643 10.6681 87.651 10.8248 87.1098 10.8248ZM85.6902 27.8731V12.9587H88.4318V27.8731H85.6902ZM95.0482 28.0351C94.7303 28.0351 94.4072 28.0099 94.0789 27.9596C93.7506 27.9094 93.4327 27.8044 93.1251 27.6447C92.819 27.4864 92.5307 27.2595 92.2601 26.9637C91.9895 26.668 91.7529 26.2776 91.5503 25.7926C91.3477 25.309 91.1887 24.7138 91.0734 24.007C90.9581 23.2987 90.9004 22.4536 90.9004 21.4717V19.1338C90.9004 18.1653 90.9603 17.3364 91.0801 16.6474C91.1984 15.9583 91.3603 15.3786 91.5658 14.9084C91.7714 14.4396 92.0117 14.0662 92.2867 13.7882C92.5617 13.5102 92.8523 13.2973 93.1584 13.1494C93.466 13.0015 93.7817 12.9039 94.1055 12.8566C94.4309 12.8093 94.7488 12.7856 95.0593 12.7856C95.3551 12.7856 95.6619 12.8078 95.9798 12.8522C96.2978 12.8951 96.6083 12.9868 96.9114 13.1272C97.2146 13.2677 97.5014 13.477 97.7721 13.755C98.0427 14.033 98.2807 14.4071 98.4863 14.8773C98.6933 15.3461 98.856 15.9287 98.9743 16.6252C99.094 17.3217 99.1539 18.1579 99.1539 19.1338V21.4717C99.1539 22.4403 99.0926 23.2743 98.9698 23.9737C98.8471 24.6746 98.6807 25.2669 98.4707 25.7504C98.2608 26.234 98.019 26.6258 97.7454 26.926C97.4704 27.2247 97.1813 27.4576 96.8782 27.6247C96.575 27.7903 96.2667 27.9005 95.9532 27.9552C95.6382 28.0084 95.3366 28.0351 95.0482 28.0351ZM95.0704 25.9234C95.3159 25.9234 95.5236 25.8606 95.6937 25.7349C95.8623 25.6077 95.9991 25.4 96.104 25.1116C96.209 24.8233 96.2852 24.4425 96.3325 23.9693C96.3784 23.4961 96.4013 22.909 96.4013 22.2081V18.5372C96.4013 17.8363 96.3784 17.2477 96.3325 16.7716C96.2852 16.2954 96.209 15.9109 96.104 15.6182C95.9991 15.3254 95.8623 15.1139 95.6937 14.9838C95.5236 14.8551 95.3159 14.7908 95.0704 14.7908C94.8102 14.7908 94.5913 14.8551 94.4139 14.9838C94.2379 15.1139 94.0922 15.3254 93.9769 15.6182C93.8615 15.9109 93.778 16.2954 93.7262 16.7716C93.676 17.2477 93.6508 17.8363 93.6508 18.5372V22.2081C93.6508 22.909 93.676 23.4961 93.7262 23.9693C93.778 24.4425 93.8615 24.8233 93.9769 25.1116C94.0922 25.4 94.2379 25.6077 94.4139 25.7349C94.5913 25.8606 94.8102 25.9234 95.0704 25.9234ZM104.439 28.0461C104.273 28.0461 104.078 28.0299 103.853 27.9973C103.63 27.9648 103.399 27.8909 103.161 27.7755C102.923 27.6602 102.688 27.4872 102.456 27.2565C102.225 27.0243 102.02 26.7079 101.839 26.3072C101.659 25.9064 101.513 25.4103 101.4 24.8188C101.289 24.2273 101.234 23.5087 101.234 22.6628V17.9316C101.234 17.0932 101.293 16.3856 101.411 15.8089C101.531 15.2307 101.688 14.7524 101.881 14.3738C102.077 13.9938 102.296 13.6973 102.538 13.4843C102.779 13.2714 103.021 13.1147 103.263 13.0141C103.506 12.9121 103.737 12.8507 103.958 12.83C104.176 12.8078 104.358 12.7967 104.503 12.7967C104.771 12.7967 105.024 12.833 105.262 12.9054C105.5 12.9779 105.717 13.0733 105.912 13.1916C106.107 13.3113 106.28 13.4452 106.431 13.593C106.583 13.7409 106.71 13.891 106.81 14.0433L106.821 14.0322L106.735 12.1468V8.172H109.463V27.8731H107.331L107.092 26.4868C106.969 26.682 106.829 26.8735 106.67 27.0613C106.511 27.2491 106.323 27.4169 106.107 27.5648C105.89 27.7127 105.644 27.8303 105.371 27.9175C105.095 28.0033 104.785 28.0461 104.439 28.0461ZM105.371 25.9234C105.551 25.9234 105.711 25.8931 105.852 25.8325C105.992 25.7704 106.119 25.6905 106.231 25.5929C106.344 25.4953 106.441 25.3815 106.524 25.2513C106.607 25.1212 106.677 24.9881 106.735 24.8521V15.8843C106.597 15.5812 106.415 15.3231 106.187 15.1102C105.961 14.8973 105.685 14.7908 105.359 14.7908C105.157 14.7908 104.973 14.8263 104.807 14.8973C104.642 14.9697 104.497 15.105 104.375 15.3032C104.252 15.5028 104.156 15.7779 104.086 16.1283C104.018 16.4773 103.984 16.9298 103.984 17.4858V23.2063C103.984 23.7608 104.018 24.2155 104.086 24.5704C104.156 24.9238 104.252 25.1996 104.375 25.3977C104.497 25.5974 104.643 25.7349 104.812 25.8103C104.982 25.8857 105.168 25.9234 105.371 25.9234ZM115.876 28.0351C115.233 28.0351 114.664 27.916 114.17 27.6779C113.675 27.4399 113.258 27.068 112.919 26.5622C112.579 26.0565 112.323 25.4088 112.15 24.6192C111.976 23.8281 111.89 22.8765 111.89 21.7645V18.9497C111.89 18.0033 111.96 17.1923 112.101 16.5165C112.241 15.8422 112.425 15.2758 112.653 14.8174C112.881 14.359 113.145 13.996 113.445 13.7283C113.744 13.4607 114.052 13.2566 114.37 13.1161C114.688 12.9757 115.003 12.8855 115.317 12.8455C115.632 12.8056 115.922 12.7856 116.189 12.7856C116.68 12.7856 117.153 12.8596 117.608 13.0075C118.064 13.1553 118.464 13.4082 118.81 13.766C119.156 14.1239 119.433 14.6023 119.64 15.2012C119.846 15.8 119.948 16.5475 119.948 17.4436C119.948 17.7468 119.939 18.0536 119.922 18.3642C119.902 18.6747 119.879 18.9793 119.851 19.278C119.821 19.5782 119.783 19.8695 119.738 20.1519C119.69 20.4329 119.641 20.6924 119.591 20.9305H114.64V22.4477C114.64 23.0968 114.666 23.6432 114.716 24.0868C114.768 24.5319 114.853 24.8898 114.971 25.1604C115.091 25.431 115.253 25.6262 115.459 25.746C115.664 25.8643 115.922 25.9234 116.233 25.9234C116.399 25.9234 116.561 25.8894 116.721 25.8214C116.879 25.7519 117.018 25.638 117.138 25.4798C117.256 25.3201 117.352 25.1086 117.424 24.8454C117.497 24.5822 117.533 24.2554 117.533 23.865V23.3992H119.817V23.9737C119.817 25.3889 119.48 26.4195 118.806 27.0657C118.13 27.712 117.154 28.0351 115.876 28.0351ZM114.64 19.0895H117.391C117.398 19.0096 117.406 18.9032 117.413 18.7701C117.42 18.637 117.426 18.498 117.431 18.3531C117.434 18.2082 117.435 18.0655 117.435 17.925C117.435 17.7845 117.435 17.664 117.435 17.5634C117.435 16.5801 117.32 15.8725 117.089 15.4407C116.857 15.0074 116.514 14.7908 116.06 14.7908C115.822 14.7908 115.613 14.8463 115.432 14.9572C115.252 15.0695 115.103 15.2573 114.986 15.5206C114.871 15.7838 114.785 16.132 114.727 16.5653C114.669 16.9985 114.64 17.5368 114.64 18.1801V19.0895ZM121.681 24.7545C121.681 24.4292 121.712 24.1149 121.774 23.8118C121.834 23.5087 121.893 23.2669 121.951 23.0865H123.879C123.879 23.6277 123.906 24.0809 123.961 24.4462C124.015 24.8099 124.104 25.1005 124.227 25.3179C124.35 25.5338 124.514 25.6891 124.719 25.7837C124.925 25.8769 125.176 25.9234 125.471 25.9234C125.882 25.9234 126.182 25.8081 126.37 25.5774C126.557 25.3467 126.651 25.0798 126.651 24.7767C126.651 24.617 126.63 24.4647 126.587 24.3197C126.544 24.1763 126.483 24.0307 126.403 23.8828C126.323 23.7349 126.225 23.5848 126.11 23.4325C125.995 23.2817 125.865 23.1153 125.72 22.9334L123.717 20.5734C123.457 20.2481 123.206 19.9176 122.965 19.5819C122.722 19.2462 122.509 18.8995 122.326 18.5416C122.141 18.1852 121.993 17.8119 121.88 17.4215C121.769 17.0311 121.714 16.6193 121.714 16.186C121.714 15.6093 121.813 15.108 122.011 14.6821C122.209 14.2562 122.476 13.9021 122.812 13.6196C123.147 13.3387 123.536 13.1295 123.976 12.9919C124.417 12.8544 124.883 12.7856 125.374 12.7856C125.915 12.7856 126.402 12.8507 126.835 12.9808C127.269 13.111 127.641 13.3062 127.951 13.5664C128.262 13.8267 128.5 14.1498 128.668 14.5357C128.833 14.9217 128.916 15.3712 128.916 15.8843C128.916 16.2303 128.885 16.566 128.823 16.8913C128.762 17.2167 128.703 17.4947 128.645 17.7253H126.749C126.742 17.2344 126.72 16.8048 126.685 16.4366C126.649 16.0684 126.583 15.7631 126.485 15.5206C126.387 15.2795 126.254 15.0976 126.083 14.9749C125.913 14.8522 125.692 14.7908 125.418 14.7908C125.18 14.7908 124.981 14.8285 124.821 14.9039C124.663 14.9793 124.535 15.0784 124.438 15.2012C124.34 15.3239 124.271 15.4614 124.231 15.6137C124.191 15.7645 124.171 15.9198 124.171 16.0795C124.171 16.4255 124.254 16.7464 124.42 17.0422C124.587 17.3379 124.807 17.6595 125.081 18.007L127.27 20.5734C127.428 20.7686 127.612 21.0052 127.822 21.2832C128.031 21.5612 128.229 21.868 128.417 22.2037C128.605 22.5394 128.764 22.9053 128.894 23.3016C129.024 23.6994 129.089 24.1149 129.089 24.5482C129.089 25.0746 129.006 25.553 128.841 25.9833C128.673 26.4121 128.428 26.7789 128.104 27.0835C127.779 27.3866 127.38 27.621 126.906 27.7866C126.433 27.9522 125.893 28.0351 125.287 28.0351C124.789 28.0351 124.319 27.9796 123.879 27.8687C123.438 27.7563 123.056 27.5722 122.732 27.3164C122.407 27.0591 122.15 26.7212 121.962 26.3027C121.774 25.8842 121.681 25.3682 121.681 24.7545ZM132.706 10.8248C132.201 10.8248 131.801 10.6733 131.509 10.3701C131.217 10.067 131.072 9.62338 131.072 9.03928C131.072 8.71396 131.109 8.44113 131.185 8.2208C131.26 8.00047 131.368 7.82376 131.509 7.69068C131.651 7.55759 131.822 7.46 132.023 7.39789C132.226 7.33726 132.457 7.30695 132.717 7.30695C133.259 7.30695 133.67 7.44373 133.951 7.71729C134.233 7.99234 134.374 8.433 134.374 9.03928C134.374 9.60268 134.232 10.0411 133.946 10.3546C133.661 10.6681 133.248 10.8248 132.706 10.8248ZM131.287 27.8731V12.9587H134.028V27.8731H131.287ZM137.18 28.8912H139.119C139.119 29.5345 139.238 29.9892 139.476 30.2554C139.714 30.523 140.082 30.6568 140.581 30.6568C140.783 30.6568 140.978 30.6258 141.164 30.5637C141.352 30.5031 141.517 30.3914 141.659 30.2288C141.799 30.0661 141.912 29.8406 141.998 29.5522C142.085 29.2639 142.129 28.892 142.129 28.4365V26.0854C141.883 26.4033 141.568 26.6761 141.182 26.9038C140.796 27.1316 140.317 27.2454 139.747 27.2454C139.581 27.2454 139.386 27.2291 139.161 27.1966C138.938 27.1641 138.707 27.0901 138.469 26.9748C138.231 26.8595 137.996 26.6842 137.764 26.4491C137.533 26.214 137.327 25.8983 137.147 25.502C136.966 25.1042 136.82 24.6074 136.708 24.0114C136.597 23.4155 136.541 22.6954 136.541 21.851V17.9316C136.541 17.1228 136.597 16.4344 136.708 15.8666C136.82 15.3002 136.966 14.8256 137.147 14.4426C137.327 14.0611 137.535 13.7616 137.77 13.5442C138.004 13.3283 138.242 13.1642 138.484 13.0518C138.727 12.9394 138.964 12.8692 139.194 12.8411C139.425 12.8115 139.63 12.7967 139.811 12.7967C140.172 12.7967 140.491 12.8441 140.769 12.9387C141.047 13.0319 141.289 13.1561 141.494 13.3113C141.701 13.4666 141.877 13.6418 142.02 13.837C142.165 14.0322 142.288 14.2274 142.388 14.4226L142.639 12.9476H144.77V27.2676C144.77 28.0972 144.691 28.8461 144.533 29.5145C144.375 30.1814 144.126 30.7515 143.786 31.2247C143.447 31.6979 143.016 32.0609 142.493 32.3138C141.969 32.5666 141.342 32.6931 140.612 32.6931C140.121 32.6931 139.659 32.6494 139.225 32.5622C138.792 32.4764 138.413 32.3234 138.09 32.103C137.764 31.8827 137.508 31.5825 137.32 31.2025C137.132 30.8239 137.038 30.3426 137.038 29.7585C137.038 29.6565 137.049 29.5301 137.071 29.3792C137.092 29.2269 137.128 29.0643 137.18 28.8912ZM140.678 25.1227C140.859 25.1227 141.019 25.0916 141.159 25.0295C141.3 24.9689 141.426 24.8876 141.539 24.7855C141.651 24.685 141.749 24.5697 141.832 24.4395C141.914 24.3094 141.985 24.1756 142.042 24.038V15.8843C141.905 15.5812 141.722 15.3231 141.494 15.1102C141.268 14.8973 140.992 14.7908 140.667 14.7908C140.464 14.7908 140.28 14.8263 140.115 14.8973C139.949 14.9697 139.805 15.105 139.682 15.3032C139.559 15.5028 139.463 15.7779 139.394 16.1283C139.326 16.4773 139.292 16.9298 139.292 17.4858V22.3922C139.292 22.9482 139.326 23.4037 139.394 23.7586C139.463 24.112 139.559 24.39 139.682 24.5926C139.805 24.7937 139.951 24.9319 140.119 25.0074C140.289 25.0843 140.476 25.1227 140.678 25.1227ZM147.642 27.8731V12.9587H149.754L150.002 14.5512V14.5623C150.22 14.2237 150.452 13.9405 150.701 13.7128C150.951 13.4851 151.209 13.3025 151.475 13.1649C151.743 13.0274 152.015 12.9298 152.293 12.8722C152.571 12.8145 152.847 12.7856 153.121 12.7856C153.995 12.7856 154.668 13.091 155.142 13.7017C155.615 14.311 155.851 15.2263 155.851 16.4477V27.8731H153.112V16.5453C153.112 15.8873 153.011 15.4304 152.808 15.1745C152.605 14.9187 152.309 14.7908 151.919 14.7908C151.645 14.7908 151.373 14.881 151.102 15.0614C150.832 15.2418 150.591 15.491 150.381 15.8089V27.8731H147.642Z" fill="#D7D3D1"/>
</svg>
