<svg width="218" height="45" viewBox="0 0 218 45" fill="none" xmlns="http://www.w3.org/2000/svg">
<rect x="120" width="98" height="40" fill="#1E4592"/>
<path d="M137.32 22.84C137.32 20.6 137.76 18.6133 138.64 16.88C139.547 15.1467 140.773 13.8133 142.32 12.88C143.867 11.9467 145.587 11.48 147.48 11.48C148.92 11.48 150.293 11.8 151.6 12.44C152.907 13.0533 153.947 13.88 154.72 14.92V4.4H160.4V34H154.72V30.72C154.027 31.8133 153.053 32.6933 151.8 33.36C150.547 34.0267 149.093 34.36 147.44 34.36C145.573 34.36 143.867 33.88 142.32 32.92C140.773 31.96 139.547 30.6133 138.64 28.88C137.76 27.12 137.32 25.1067 137.32 22.84ZM154.76 22.92C154.76 21.56 154.493 20.4 153.96 19.44C153.427 18.4533 152.707 17.7067 151.8 17.2C150.893 16.6667 149.92 16.4 148.88 16.4C147.84 16.4 146.88 16.6533 146 17.16C145.12 17.6667 144.4 18.4133 143.84 19.4C143.307 20.36 143.04 21.5067 143.04 22.84C143.04 24.1733 143.307 25.3467 143.84 26.36C144.4 27.3467 145.12 28.1067 146 28.64C146.907 29.1733 147.867 29.44 148.88 29.44C149.92 29.44 150.893 29.1867 151.8 28.68C152.707 28.1467 153.427 27.4 153.96 26.44C154.493 25.4533 154.76 24.28 154.76 22.92ZM186.469 22.44C186.469 23.24 186.416 23.96 186.309 24.6H170.109C170.243 26.2 170.803 27.4533 171.789 28.36C172.776 29.2667 173.989 29.72 175.429 29.72C177.509 29.72 178.989 28.8267 179.869 27.04H185.909C185.269 29.1733 184.043 30.9333 182.229 32.32C180.416 33.68 178.189 34.36 175.549 34.36C173.416 34.36 171.496 33.8933 169.789 32.96C168.109 32 166.789 30.6533 165.829 28.92C164.896 27.1867 164.429 25.1867 164.429 22.92C164.429 20.6267 164.896 18.6133 165.829 16.88C166.763 15.1467 168.069 13.8133 169.749 12.88C171.429 11.9467 173.363 11.48 175.549 11.48C177.656 11.48 179.536 11.9333 181.189 12.84C182.869 13.7467 184.163 15.04 185.069 16.72C186.003 18.3733 186.469 20.28 186.469 22.44ZM180.669 20.84C180.643 19.4 180.123 18.2533 179.109 17.4C178.096 16.52 176.856 16.08 175.389 16.08C174.003 16.08 172.829 16.5067 171.869 17.36C170.936 18.1867 170.363 19.3467 170.149 20.84H180.669ZM199.797 28.84L205.397 11.84H211.357L203.157 34H196.357L188.197 11.84H194.197L199.797 28.84Z" fill="white"/>
<path d="M127 27H134V34H127V27Z" fill="white"/>
<path d="M9.28 16.44V27.16C9.28 27.9067 9.45333 28.4533 9.8 28.8C10.1733 29.12 10.7867 29.28 11.64 29.28H14.24V34H10.72C6 34 3.64 31.7067 3.64 27.12V16.44H1V11.84H3.64V6.36H9.28V11.84H14.24V16.44H9.28ZM23.8678 15.28C24.5878 14.1067 25.5211 13.1867 26.6678 12.52C27.8411 11.8533 29.1745 11.52 30.6678 11.52V17.4H29.1878C27.4278 17.4 26.0945 17.8133 25.1878 18.64C24.3078 19.4667 23.8678 20.9067 23.8678 22.96V34H18.2678V11.84H23.8678V15.28ZM39.5597 29.4H49.4397V34H33.1997V29.48L42.8797 16.44H33.2397V11.84H49.3197V16.36L39.5597 29.4ZM59.3756 15.04C60.0956 14.0267 61.0823 13.1867 62.3356 12.52C63.6156 11.8267 65.069 11.48 66.6956 11.48C68.589 11.48 70.2956 11.9467 71.8156 12.88C73.3623 13.8133 74.5756 15.1467 75.4556 16.88C76.3623 18.5867 76.8156 20.5733 76.8156 22.84C76.8156 25.1067 76.3623 27.12 75.4556 28.88C74.5756 30.6133 73.3623 31.96 71.8156 32.92C70.2956 33.88 68.589 34.36 66.6956 34.36C65.069 34.36 63.629 34.0267 62.3756 33.36C61.149 32.6933 60.149 31.8533 59.3756 30.84V44.56H53.7756V11.84H59.3756V15.04ZM71.0956 22.84C71.0956 21.5067 70.8156 20.36 70.2556 19.4C69.7223 18.4133 69.0023 17.6667 68.0956 17.16C67.2156 16.6533 66.2556 16.4 65.2156 16.4C64.2023 16.4 63.2423 16.6667 62.3356 17.2C61.4556 17.7067 60.7356 18.4533 60.1756 19.44C59.6423 20.4267 59.3756 21.5867 59.3756 22.92C59.3756 24.2533 59.6423 25.4133 60.1756 26.4C60.7356 27.3867 61.4556 28.1467 62.3356 28.68C63.2423 29.1867 64.2023 29.44 65.2156 29.44C66.2556 29.44 67.2156 29.1733 68.0956 28.64C69.0023 28.1067 69.7223 27.3467 70.2556 26.36C70.8156 25.3733 71.0956 24.2 71.0956 22.84ZM83.725 9.2C82.7383 9.2 81.9117 8.89333 81.245 8.28C80.605 7.64 80.285 6.85333 80.285 5.92C80.285 4.98667 80.605 4.21333 81.245 3.6C81.9117 2.96 82.7383 2.64 83.725 2.64C84.7117 2.64 85.525 2.96 86.165 3.6C86.8317 4.21333 87.165 4.98667 87.165 5.92C87.165 6.85333 86.8317 7.64 86.165 8.28C85.525 8.89333 84.7117 9.2 83.725 9.2ZM86.485 11.84V34H80.885V11.84H86.485ZM101.858 34.36C99.7245 34.36 97.8045 33.8933 96.0978 32.96C94.3911 32 93.0445 30.6533 92.0578 28.92C91.0978 27.1867 90.6178 25.1867 90.6178 22.92C90.6178 20.6533 91.1111 18.6533 92.0978 16.92C93.1111 15.1867 94.4845 13.8533 96.2178 12.92C97.9511 11.96 99.8845 11.48 102.018 11.48C104.151 11.48 106.084 11.96 107.818 12.92C109.551 13.8533 110.911 15.1867 111.898 16.92C112.911 18.6533 113.418 20.6533 113.418 22.92C113.418 25.1867 112.898 27.1867 111.858 28.92C110.844 30.6533 109.458 32 107.698 32.96C105.964 33.8933 104.018 34.36 101.858 34.36ZM101.858 29.48C102.871 29.48 103.818 29.24 104.698 28.76C105.604 28.2533 106.324 27.5067 106.858 26.52C107.391 25.5333 107.658 24.3333 107.658 22.92C107.658 20.8133 107.098 19.2 105.978 18.08C104.884 16.9333 103.538 16.36 101.938 16.36C100.338 16.36 98.9911 16.9333 97.8978 18.08C96.8311 19.2 96.2978 20.8133 96.2978 22.92C96.2978 25.0267 96.8178 26.6533 97.8578 27.8C98.9245 28.92 100.258 29.48 101.858 29.48Z" fill="black"/>
</svg>
