<svg width="690" height="585" viewBox="0 0 690 585" fill="none" xmlns="http://www.w3.org/2000/svg">
<path d="M52.7031 0.39624L689.833 64.3079L637.632 584.696L0.502021 520.785L52.7031 0.39624Z" fill="#F3F7FE"/>
<path d="M117.099 236.285C116.74 238.492 116.982 240.755 117.798 242.836C120.649 251.933 141.892 286.823 141.349 259.611C141.194 251.544 119.99 224.312 117.099 236.285Z" fill="white"/>
<path d="M137.897 270.787C130.757 270.787 118.788 249.134 116.906 243.089C116.033 240.832 115.785 238.38 116.188 235.994C117.061 232.437 119.35 232.106 120.669 232.281C127.964 233.078 142.262 252.341 142.417 259.61C142.572 266.88 141.253 270.282 138.42 270.748L137.897 270.787ZM118.07 236.46C117.75 238.495 117.991 240.579 118.768 242.486C121.154 250.261 133.338 269.504 138.052 268.766C138.789 268.649 140.516 267.502 140.36 259.649C140.225 253.527 126.528 234.944 120.398 234.381C119.583 234.381 118.594 234.381 118.07 236.558V236.46Z" fill="#231F20"/>
<path d="M354.15 319.012L214.858 344.533C214.858 344.533 169.714 279.359 168.298 280.584C154.465 292.246 136.637 306.727 136.637 306.727C136.637 306.727 149.809 394.429 184.128 411.943C218.447 429.456 325.515 386.382 325.515 386.382L354.15 319.012Z" fill="#1E4593"/>
<path d="M468.18 324.124L541.415 367.372L564.695 248.24L600.682 261.846C600.682 261.846 607.608 476.262 568.284 471.111C528.96 465.96 434.715 409.63 434.715 409.63L468.18 324.124Z" fill="#1E4593"/>
<path d="M354.15 319.012C354.15 319.012 306.62 316.504 272.67 403.449C238.72 490.393 215.266 546.431 215.266 546.431L430.606 567.813C430.606 567.813 456.582 470.625 467.815 398.492C473.499 361.949 475.42 331.84 468.242 324.046C446.843 300.915 354.15 319.012 354.15 319.012Z" fill="#1E4593"/>
<path d="M436.442 546.004H436.151C435.898 545.927 435.684 545.754 435.557 545.521C435.43 545.288 435.4 545.015 435.472 544.76L484.787 376.644C484.863 376.39 485.036 376.177 485.269 376.049C485.501 375.922 485.774 375.891 486.028 375.964C486.155 375.999 486.274 376.06 486.377 376.142C486.48 376.225 486.566 376.327 486.629 376.443C486.693 376.559 486.732 376.686 486.745 376.817C486.759 376.949 486.746 377.081 486.707 377.208L437.393 545.343C437.323 545.539 437.194 545.708 437.024 545.827C436.853 545.946 436.65 546.007 436.442 546.004V546.004Z" fill="#231F20"/>
<path d="M220.852 533.68C220.737 533.708 220.618 533.708 220.503 533.68C220.254 533.585 220.053 533.394 219.944 533.15C219.834 532.906 219.826 532.628 219.921 532.378L288.83 356.449C288.875 356.323 288.945 356.209 289.035 356.112C289.126 356.014 289.236 355.937 289.358 355.884C289.48 355.831 289.611 355.804 289.744 355.804C289.877 355.804 290.008 355.832 290.13 355.885C290.374 355.98 290.57 356.169 290.676 356.41C290.781 356.65 290.787 356.923 290.692 357.168L221.803 533.117C221.714 533.292 221.578 533.437 221.41 533.537C221.241 533.637 221.048 533.687 220.852 533.68V533.68Z" fill="#231F20"/>
<path d="M326.737 305.872C326.737 304.686 326.737 303.539 326.737 302.431C326.552 298.364 327.124 294.297 328.425 290.439C330.531 286.028 333.755 282.248 337.776 279.476C353.649 267.39 372.724 260.258 392.62 258.969C412.466 257.742 432.331 261.066 450.703 268.688C459.188 271.845 467.064 276.448 473.983 282.294C480.241 288.115 485.041 295.332 487.994 303.36C490.946 311.388 491.969 320 490.978 328.497C490.299 334.329 490.027 343.795 487.66 349.218C483.509 358.664 471.248 358.334 462.964 360.88C454.68 363.427 448.181 369.355 440.499 373.165C433.573 376.625 424.183 375.847 416.559 376.43C397.935 377.869 377.604 377.188 362.239 366.556C351.744 359.306 349.92 345.797 344.042 335.359C340.705 329.527 336.282 327.798 331.956 323.56C327.629 319.323 326.756 312.092 326.737 305.872Z" fill="#1E4593"/>
<path d="M372.365 379.443C373.247 382.644 374.87 385.592 377.101 388.047C379.332 390.502 382.11 392.396 385.208 393.574C388.22 394.395 391.368 394.595 394.459 394.16C397.55 393.726 400.521 392.667 403.192 391.047C408.481 387.791 413.093 383.54 416.772 378.53C422.124 371.798 426.633 364.435 430.197 356.604C432.718 351.612 434.222 346.168 434.62 340.587C434.803 337.835 434.376 335.077 433.37 332.509C432.364 329.942 430.803 327.629 428.8 325.737C417.82 316.252 388.254 316.446 378.108 328.614C368.602 340.043 368.369 366.77 372.365 379.443Z" fill="#231F20"/>
<path d="M390.95 395.46C388.896 395.469 386.854 395.154 384.898 394.527C381.646 393.305 378.729 391.33 376.386 388.762C374.042 386.195 372.339 383.108 371.415 379.754V379.754C367.341 366.867 367.651 339.635 377.37 327.953C381.852 322.608 390.33 319.051 400.65 318.234C412.29 317.282 423.601 319.945 429.479 325.018C431.591 326.993 433.24 329.411 434.31 332.099C435.38 334.787 435.844 337.679 435.667 340.568C435.243 346.286 433.707 351.865 431.147 356.993C427.535 364.892 422.974 372.32 417.567 379.113C413.821 384.258 409.085 388.6 403.638 391.883C399.781 394.137 395.414 395.368 390.95 395.46V395.46ZM373.316 379.152C374.152 382.199 375.693 385.006 377.813 387.346C379.932 389.686 382.572 391.493 385.518 392.622C388.397 393.396 391.402 393.578 394.353 393.157C397.304 392.736 400.139 391.721 402.687 390.173C407.912 387.015 412.456 382.845 416.054 377.908C421.343 371.235 425.806 363.945 429.343 356.196C431.802 351.316 433.279 345.999 433.689 340.549C433.866 337.944 433.464 335.331 432.511 332.901C431.559 330.471 430.079 328.283 428.179 326.495C422.689 321.752 411.961 319.284 400.844 320.197C391.028 321.014 383.035 324.299 378.922 329.255C369.61 340.413 369.378 366.673 373.316 379.152V379.152Z" fill="#231F20"/>
<path d="M465.951 285.462C471.209 276.599 477.145 267.969 481.199 258.639C485.254 249.309 487.291 238.676 484.4 229.171C483.424 225.249 481.086 221.804 477.804 219.452C476.072 218.311 474.04 217.713 471.967 217.734C469.894 217.755 467.874 218.394 466.165 219.569C464.584 215.201 461.815 211.363 458.172 208.49C449.897 200.952 439.671 195.9 428.664 193.911C417.255 191.916 405.512 194.206 395.684 200.345C391.688 202.95 388.118 206.177 383.889 208.392C380.334 210.214 376.398 211.165 372.404 211.165C368.411 211.165 364.475 210.214 360.92 208.392C358.087 223.087 363.151 238.171 372.133 249.775C381.115 261.379 393.705 269.835 406.917 276.657C413.803 280.517 421.306 283.148 429.091 284.432C437.159 285.727 445.414 283.854 452.138 279.204" fill="white"/>
<path d="M465.949 286.454C465.772 286.458 465.597 286.41 465.445 286.318C465.33 286.252 465.23 286.163 465.15 286.057C465.069 285.951 465.011 285.831 464.979 285.702C464.946 285.573 464.94 285.439 464.96 285.308C464.98 285.177 465.026 285.051 465.096 284.938C466.473 282.625 467.889 280.312 469.325 278.018C473.449 271.705 477.106 265.098 480.267 258.25C483.468 250.844 486.591 239.823 483.429 229.463C482.497 225.807 480.313 222.594 477.26 220.385C475.714 219.353 473.898 218.803 472.041 218.803C470.184 218.803 468.368 219.353 466.822 220.385C466.69 220.483 466.537 220.547 466.375 220.574C466.214 220.601 466.048 220.59 465.891 220.541C465.739 220.491 465.601 220.405 465.49 220.29C465.378 220.174 465.296 220.034 465.251 219.88C463.699 215.689 461.011 212.014 457.491 209.267C449.376 201.839 439.327 196.866 428.507 194.922C417.374 193.023 405.933 195.292 396.362 201.298C394.848 202.289 393.374 203.397 391.938 204.466C389.596 206.325 387.097 207.976 384.469 209.403C380.967 211.163 377.121 212.127 373.205 212.228C369.288 212.329 365.398 211.564 361.81 209.986C359.715 223.029 363.75 237.199 373.062 249.25C380.822 259.28 391.764 267.735 407.497 275.86C414.282 279.7 421.679 282.33 429.361 283.635C437.167 284.896 445.158 283.092 451.671 278.601C451.886 278.468 452.142 278.421 452.39 278.468C452.638 278.515 452.859 278.653 453.01 278.856C453.161 279.058 453.231 279.31 453.205 279.562C453.18 279.813 453.062 280.046 452.874 280.214C445.939 285.008 437.429 286.943 429.109 285.618C421.199 284.282 413.579 281.586 406.585 277.649C390.58 269.388 379.425 260.738 371.491 250.436C361.539 237.607 357.368 222.213 360.064 208.256C360.095 208.101 360.162 207.954 360.26 207.829C360.358 207.705 360.483 207.604 360.627 207.537C360.765 207.466 360.918 207.428 361.073 207.428C361.228 207.428 361.381 207.466 361.519 207.537C364.934 209.272 368.709 210.176 372.538 210.176C376.367 210.176 380.143 209.272 383.558 207.537C386.085 206.164 388.487 204.571 390.736 202.775C392.191 201.687 393.704 200.559 395.275 199.548C405.294 193.29 417.266 190.957 428.895 192.998C440.091 195.001 450.491 200.143 458.888 207.829C462.293 210.579 464.994 214.104 466.764 218.111C468.583 217.172 470.616 216.73 472.66 216.829C474.703 216.927 476.685 217.564 478.404 218.675C481.882 221.131 484.372 224.749 485.427 228.88C488.764 239.823 485.427 251.33 482.187 259.047C478.991 265.984 475.288 272.676 471.11 279.068C469.674 281.361 468.258 283.655 466.881 285.968C466.788 286.13 466.651 286.262 466.486 286.348C466.321 286.434 466.135 286.471 465.949 286.454V286.454Z" fill="#231F20"/>
<path d="M390.192 311.587L377.194 336.661C377.194 336.661 367.261 366.614 391.531 367.761C415.8 368.908 430.835 346.011 430.835 346.011L455.919 289.506C455.919 289.506 442.339 275.996 459.372 241.709C438.626 244.283 417.57 241.313 398.34 233.098C398.34 233.098 374.944 268.882 371.781 286.823C368.619 304.764 390.192 311.587 390.192 311.587Z" fill="white"/>
<path d="M393.122 368.694C392.579 368.694 392.036 368.694 391.473 368.694C385.052 368.422 380.337 366.148 377.447 361.949C370.987 352.58 376.031 337.03 376.263 336.37L388.776 312.092C384.295 310.343 367.941 302.762 370.793 286.609C373.955 268.668 396.536 233.972 397.506 232.495C397.634 232.299 397.826 232.154 398.05 232.087C398.274 232.019 398.514 232.033 398.729 232.126C417.791 240.228 438.642 243.177 459.198 240.678C459.38 240.644 459.568 240.662 459.74 240.731C459.912 240.8 460.061 240.916 460.168 241.067C460.266 241.224 460.318 241.406 460.318 241.592C460.318 241.777 460.266 241.959 460.168 242.117C451.516 259.474 451.012 271.273 452.098 278.076C452.543 282.006 454.121 285.72 456.638 288.767C456.78 288.913 456.874 289.099 456.909 289.3C456.944 289.502 456.917 289.709 456.832 289.894L431.747 346.399C431.515 346.788 416.712 368.694 393.122 368.694ZM398.729 234.342C395.45 239.434 375.623 270.845 372.771 286.998C369.784 303.87 390.231 310.556 390.503 310.615C390.64 310.665 390.766 310.743 390.873 310.843C390.979 310.943 391.065 311.064 391.124 311.198C391.186 311.328 391.218 311.471 391.218 311.616C391.218 311.76 391.186 311.903 391.124 312.034L378.126 337.108C378.126 337.108 373.237 352.231 379.135 360.783C381.657 364.437 385.847 366.42 391.609 366.614C415.083 367.683 429.885 345.641 430.04 345.408L454.795 289.642C452.467 286.843 443.271 273.003 457.685 242.991C437.622 245.031 417.366 242.06 398.729 234.342V234.342Z" fill="#231F20"/>
<path d="M415.665 261.36C415.665 261.36 398.515 277.804 400.785 281.614C403.055 285.424 412.076 284.782 412.076 284.782" fill="white"/>
<path d="M410.484 285.812C407.594 285.812 401.91 285.365 399.97 282.1C397.486 277.96 410.834 264.606 414.985 260.718C415.075 260.627 415.183 260.555 415.301 260.506C415.419 260.456 415.546 260.431 415.674 260.431C415.802 260.431 415.929 260.456 416.047 260.506C416.165 260.555 416.272 260.627 416.363 260.718C416.453 260.809 416.526 260.916 416.575 261.035C416.624 261.153 416.649 261.28 416.649 261.408C416.649 261.537 416.624 261.664 416.575 261.782C416.526 261.901 416.453 262.008 416.363 262.098C408.35 269.776 400.552 279.281 401.657 281.147C403.287 283.849 409.708 284.024 412.036 283.849C412.292 283.838 412.543 283.927 412.735 284.098C412.926 284.268 413.045 284.507 413.065 284.763C413.075 284.889 413.06 285.017 413.021 285.138C412.982 285.259 412.918 285.37 412.835 285.466C412.752 285.562 412.651 285.641 412.537 285.697C412.423 285.753 412.299 285.786 412.172 285.793C411.92 285.773 411.319 285.812 410.484 285.812Z" fill="#231F20"/>
<path d="M437.792 260.462C438.353 257.618 437.802 255.114 436.562 254.868C435.322 254.623 433.862 256.729 433.301 259.572C432.74 262.416 433.291 264.92 434.531 265.166C435.771 265.411 437.231 263.305 437.792 260.462Z" fill="#231F20"/>
<path d="M402.437 255.972C402.958 253.131 402.376 250.644 401.137 250.416C399.898 250.188 398.471 252.306 397.951 255.146C397.43 257.987 398.012 260.474 399.251 260.702C400.49 260.93 401.917 258.812 402.437 255.972Z" fill="#231F20"/>
<path d="M444.512 276.327C447.626 273.505 451.229 271.279 455.143 269.757C457.212 268.812 459.511 268.494 461.758 268.843C463.488 269.327 465.039 270.307 466.22 271.662C468.019 273.564 469.373 275.843 470.185 278.334C470.997 280.825 471.246 283.466 470.915 286.065C470.649 288.537 469.769 290.903 468.354 292.946C465.919 296.101 462.507 298.357 458.654 299.36C454.846 300.319 450.941 300.841 447.014 300.915" fill="white"/>
<path d="M446.842 301.926C446.631 301.866 446.446 301.738 446.314 301.563C446.182 301.388 446.111 301.174 446.111 300.954C446.111 300.735 446.182 300.521 446.314 300.346C446.446 300.17 446.631 300.043 446.842 299.982C450.723 299.908 454.582 299.393 458.346 298.447C462.01 297.528 465.266 295.415 467.6 292.441C468.906 290.515 469.725 288.301 469.986 285.987C470.296 283.533 470.06 281.04 469.296 278.688C468.531 276.336 467.256 274.182 465.563 272.381C464.509 271.172 463.128 270.294 461.586 269.854C459.539 269.571 457.454 269.874 455.572 270.729C451.755 272.206 448.238 274.366 445.193 277.104C444.993 277.251 444.746 277.318 444.5 277.294C444.253 277.269 444.024 277.155 443.857 276.973C443.689 276.79 443.594 276.552 443.59 276.304C443.586 276.056 443.673 275.815 443.835 275.627C447.052 272.729 450.766 270.438 454.796 268.863C457.044 267.848 459.54 267.517 461.974 267.91C463.904 268.414 465.635 269.491 466.941 271.001C468.842 273.012 470.275 275.419 471.137 278.051C471.999 280.682 472.268 283.472 471.926 286.221C471.625 288.859 470.679 291.383 469.172 293.568C466.582 296.923 462.95 299.316 458.851 300.371C454.938 301.339 450.93 301.873 446.9 301.965L446.842 301.926Z" fill="#231F20"/>
<path d="M390.193 311.587C390.193 311.587 410.854 318.234 424.473 314.211C424.473 314.211 402.551 337.322 377.195 336.661L390.193 311.587Z" fill="#231F20"/>
<path d="M378.302 337.672H377.177C377.008 337.671 376.842 337.625 376.695 337.54C376.549 337.455 376.428 337.333 376.343 337.186C376.261 337.037 376.219 336.87 376.219 336.7C376.219 336.53 376.261 336.363 376.343 336.214L389.322 311.14C389.433 310.929 389.613 310.763 389.833 310.671C390.052 310.579 390.296 310.566 390.524 310.634C390.718 310.634 411.05 317.165 424.203 313.278C424.414 313.21 424.641 313.216 424.849 313.293C425.056 313.371 425.232 313.516 425.347 313.705C425.459 313.897 425.507 314.12 425.482 314.34C425.458 314.561 425.363 314.768 425.212 314.93C424.3 315.843 403.309 337.672 378.302 337.672ZM390.699 312.792L378.846 335.65C397.858 335.417 414.891 321.694 421.138 315.98C409.187 317.923 394.346 313.88 390.699 312.792V312.792Z" fill="#231F20"/>
<path d="M357.115 369.88C356.886 369.88 356.664 369.8 356.487 369.655C356.311 369.51 356.189 369.308 356.145 369.083C351.499 351.103 342.504 334.547 329.955 320.878C329.86 320.785 329.785 320.675 329.734 320.553C329.683 320.431 329.656 320.3 329.656 320.168C329.656 320.036 329.683 319.905 329.734 319.783C329.785 319.661 329.86 319.551 329.955 319.459C330.146 319.277 330.399 319.176 330.663 319.176C330.926 319.176 331.18 319.277 331.371 319.459C344.181 333.405 353.357 350.304 358.085 368.655C358.113 368.784 358.115 368.918 358.091 369.048C358.068 369.177 358.018 369.301 357.946 369.412C357.873 369.522 357.78 369.617 357.67 369.691C357.561 369.765 357.438 369.816 357.309 369.841L357.115 369.88Z" fill="#231F20"/>
<path d="M423.814 387.374C423.588 387.38 423.367 387.304 423.193 387.16C423.088 387.078 423 386.977 422.935 386.86C422.87 386.744 422.829 386.616 422.814 386.484C422.8 386.351 422.812 386.217 422.851 386.089C422.889 385.962 422.953 385.843 423.038 385.741C439.295 367.847 460.011 354.611 483.061 347.391C483.316 347.317 483.59 347.344 483.824 347.467C484.059 347.59 484.238 347.8 484.322 348.052C484.364 348.178 484.38 348.311 484.37 348.444C484.359 348.576 484.322 348.706 484.26 348.823C484.199 348.941 484.114 349.046 484.011 349.13C483.909 349.215 483.79 349.277 483.663 349.315C460.985 356.409 440.598 369.417 424.59 387.004C424.497 387.122 424.379 387.216 424.245 387.28C424.11 387.344 423.963 387.376 423.814 387.374Z" fill="#231F20"/>
<path d="M407.829 295.278C402.658 295.124 397.534 294.254 392.6 292.693C391.9 292.464 391.188 292.276 390.466 292.13C390.277 292.165 390.081 292.146 389.902 292.073C389.723 292.001 389.569 291.879 389.458 291.721C389.316 291.504 389.265 291.24 389.316 290.985C389.367 290.731 389.515 290.507 389.729 290.361C390.272 289.991 390.835 290.147 393.144 290.808C400.904 293.024 421.215 298.913 427.579 279.145C427.616 279.023 427.677 278.909 427.76 278.81C427.842 278.712 427.943 278.632 428.057 278.573C428.172 278.515 428.296 278.481 428.424 278.472C428.552 278.464 428.68 278.481 428.801 278.523C428.921 278.561 429.033 278.622 429.129 278.703C429.225 278.784 429.305 278.884 429.363 278.996C429.42 279.108 429.455 279.23 429.465 279.356C429.476 279.482 429.461 279.608 429.422 279.728C425.425 292.168 416.288 295.278 407.829 295.278Z" fill="#231F20"/>
<path d="M120.438 102.807L154.116 519.316L583.845 484.484L550.206 67.9558L120.438 102.807ZM544.386 404.09L180.015 433.635L161.895 208.528L526.266 178.983L544.386 404.09Z" fill="white"/>
<path d="M154.113 520.288C153.862 520.303 153.614 520.227 153.415 520.074C153.219 519.9 153.101 519.655 153.085 519.394L119.523 102.885C119.512 102.758 119.527 102.629 119.566 102.507C119.605 102.385 119.668 102.272 119.751 102.174C119.834 102.077 119.935 101.997 120.049 101.939C120.163 101.88 120.288 101.845 120.415 101.836L550.125 67.0035C550.38 66.9818 550.632 67.0615 550.828 67.2253C551.024 67.389 551.148 67.6236 551.173 67.8782L584.812 484.406C584.823 484.534 584.808 484.662 584.769 484.784C584.73 484.906 584.667 485.019 584.584 485.117C584.501 485.215 584.4 485.295 584.286 485.353C584.172 485.411 584.048 485.446 583.92 485.456L154.191 520.288H154.113ZM121.54 103.682L155.005 518.286L582.795 483.59L549.31 69.0056L121.54 103.682ZM180.07 434.549C179.841 434.552 179.62 434.469 179.449 434.315C179.351 434.234 179.269 434.133 179.209 434.02C179.149 433.907 179.112 433.782 179.1 433.655L160.922 208.606C160.912 208.479 160.927 208.35 160.966 208.228C161.005 208.106 161.068 207.993 161.151 207.895C161.234 207.798 161.335 207.718 161.449 207.66C161.563 207.601 161.687 207.566 161.815 207.557L526.186 177.973C526.446 177.954 526.703 178.038 526.903 178.206C527.094 178.375 527.212 178.612 527.233 178.867L545.411 403.973C545.422 404.101 545.407 404.23 545.368 404.352C545.329 404.474 545.266 404.587 545.183 404.684C545.1 404.782 544.998 404.862 544.884 404.92C544.771 404.978 544.646 405.013 544.519 405.023L180.148 434.549H180.07ZM162.94 209.423L180.963 432.605L543.355 403.215L525.39 180.033L162.94 209.423Z" fill="#231F20"/>
<path d="M173.805 146.328C183.952 146.328 192.177 138.087 192.177 127.921C192.177 117.755 183.952 109.513 173.805 109.513C163.659 109.513 155.434 117.755 155.434 127.921C155.434 138.087 163.659 146.328 173.805 146.328Z" fill="#D1D3D4"/>
<path d="M161.177 159.041C160.92 159.041 160.673 158.938 160.491 158.756C160.309 158.574 160.207 158.326 160.207 158.069C160.207 157.811 160.309 157.564 160.491 157.381C160.673 157.199 160.92 157.097 161.177 157.097L518.913 128.096C519.04 128.086 519.169 128.101 519.29 128.14C519.412 128.18 519.524 128.243 519.622 128.326C519.719 128.409 519.799 128.51 519.857 128.624C519.915 128.738 519.95 128.862 519.961 128.99C519.971 129.118 519.956 129.246 519.916 129.368C519.877 129.49 519.814 129.603 519.731 129.7C519.649 129.797 519.547 129.878 519.434 129.936C519.32 129.994 519.196 130.029 519.068 130.04L161.332 159.041H161.177Z" fill="#D1D3D4"/>
<path d="M163.118 182.502C162.861 182.502 162.614 182.399 162.433 182.217C162.251 182.035 162.148 181.787 162.148 181.53C162.148 181.272 162.251 181.025 162.433 180.842C162.614 180.66 162.861 180.558 163.118 180.558L445.679 157.641C445.936 157.625 446.188 157.709 446.384 157.876C446.579 158.042 446.702 158.279 446.727 158.535C446.738 158.663 446.723 158.791 446.684 158.913C446.645 159.035 446.582 159.148 446.499 159.246C446.416 159.343 446.314 159.424 446.2 159.482C446.086 159.54 445.962 159.575 445.835 159.585L163.215 182.502H163.118Z" fill="#D1D3D4"/>
<path d="M205.155 491.54C218.033 491.54 228.474 481.079 228.474 468.176C228.474 455.272 218.033 444.812 205.155 444.812C192.276 444.812 181.836 455.272 181.836 468.176C181.836 481.079 192.276 491.54 205.155 491.54Z" fill="#1E4593"/>
<path d="M257.616 487.283C270.494 487.283 280.934 476.822 280.934 463.919C280.934 451.015 270.494 440.555 257.616 440.555C244.737 440.555 234.297 451.015 234.297 463.919C234.297 476.822 244.737 487.283 257.616 487.283Z" fill="#1E4593"/>
<path d="M196.328 465.601L192.487 465.909C191.704 465.972 191.121 466.658 191.184 467.442L192.059 478.405C192.122 479.188 192.806 479.773 193.588 479.71L197.43 479.402C198.212 479.339 198.795 478.653 198.733 477.87L197.857 466.907C197.795 466.123 197.11 465.539 196.328 465.601Z" fill="white"/>
<path d="M200.945 465.979L201.915 477.311L218.056 476.009C218.056 476.009 220.714 462.403 218.522 461.606C216.33 460.809 209.908 461.606 209.908 461.606C209.908 461.606 212.314 452.198 209.714 451.887C207.115 451.576 204.185 460.537 200.945 465.979Z" fill="white"/>
<path d="M257.108 457.874L257.438 457.271C258.161 456.018 259.215 454.989 260.484 454.297C261.468 453.771 262.568 453.497 263.685 453.5C265.206 453.481 266.687 453.986 267.881 454.931C269.075 455.876 269.908 457.203 270.242 458.69C270.429 459.584 270.501 460.499 270.455 461.412C270.461 462.291 270.35 463.167 270.125 464.016C269.731 465.365 269.072 466.62 268.185 467.709C267.303 468.832 266.358 469.903 265.353 470.916C263.646 472.685 261.919 474.454 260.212 476.242C259.708 476.767 259.242 477.311 258.737 477.856V477.953L258.311 477.622C256.371 476.067 254.431 474.59 252.491 473.132C251.191 472.18 249.872 471.189 248.611 470.178C247.703 469.437 246.894 468.581 246.205 467.632C245.487 466.62 244.973 465.478 244.692 464.269C244.477 463.369 244.347 462.452 244.304 461.528C244.227 460.194 244.557 458.867 245.25 457.725C245.943 456.583 246.966 455.679 248.184 455.133C249.402 454.571 250.759 454.381 252.085 454.589C253.41 454.796 254.644 455.391 255.634 456.299C256.155 456.73 256.618 457.226 257.011 457.777L257.108 457.874Z" fill="white"/>
<path d="M300.016 109.456L204.203 117.23L205.144 128.874L300.958 121.1L300.016 109.456Z" fill="#D1D3D4"/>
<path d="M298.1 461.606C297.859 461.602 297.629 461.508 297.453 461.343C297.277 461.177 297.169 460.952 297.15 460.712C297.136 460.585 297.149 460.457 297.186 460.335C297.222 460.213 297.283 460.1 297.365 460.002C297.446 459.904 297.546 459.824 297.659 459.765C297.772 459.707 297.896 459.672 298.023 459.662L366.815 454.083C366.942 454.073 367.069 454.088 367.19 454.127C367.31 454.167 367.422 454.23 367.517 454.313C367.613 454.397 367.691 454.498 367.747 454.612C367.803 454.726 367.836 454.851 367.843 454.978C367.865 455.232 367.785 455.485 367.622 455.682C367.459 455.878 367.224 456.002 366.97 456.027L298.159 461.606H298.1Z" fill="#D1D3D4"/>
<path d="M593.914 261.787C598.764 258.58 603.905 215.954 589.413 206.157C579.031 198.918 569.038 191.132 559.479 182.832L560.837 199.743C560.837 199.743 545.705 194.378 543.571 201.686C541.437 208.995 544.793 219.394 563.631 234.225L564.756 248.298L593.914 261.787Z" fill="white"/>
<path d="M593.913 262.798C593.772 262.828 593.627 262.828 593.486 262.798L564.386 249.192C564.225 249.115 564.086 248.998 563.984 248.851C563.882 248.705 563.82 248.534 563.804 248.356L562.698 234.75C546.635 221.999 539.884 210.783 542.638 201.414C542.857 200.649 543.234 199.938 543.745 199.328C544.257 198.718 544.891 198.224 545.607 197.877C549.719 195.758 556.742 197.449 559.769 198.343L558.508 182.91C558.493 182.71 558.538 182.511 558.637 182.337C558.736 182.163 558.884 182.022 559.063 181.932C559.241 181.843 559.443 181.809 559.641 181.834C559.839 181.859 560.025 181.943 560.176 182.074C569.703 190.372 579.663 198.158 590.013 205.399C598.763 211.328 600.004 227.364 599.946 236.499C599.946 247.501 597.696 260.699 594.495 262.818C594.302 262.863 594.101 262.857 593.913 262.798ZM565.705 247.579L593.719 260.602C595.484 258.386 597.851 248.492 597.909 236.305C597.909 221.629 594.689 210.939 588.849 206.993C579.087 200.199 569.684 192.9 560.68 185.126L561.844 199.607C561.855 199.773 561.826 199.94 561.758 200.092C561.69 200.244 561.587 200.378 561.456 200.481C561.324 200.586 561.168 200.656 561.001 200.683C560.835 200.71 560.664 200.694 560.506 200.637C560.506 200.637 550.961 197.294 546.48 199.587C546.01 199.817 545.595 200.144 545.261 200.546C544.926 200.948 544.681 201.416 544.54 201.92C542.018 210.511 548.652 221.085 564.269 233.389C564.376 233.473 564.464 233.579 564.528 233.7C564.591 233.82 564.629 233.953 564.638 234.089L565.705 247.579Z" fill="#231F20"/>
<path d="M134.443 257.317L133.939 257.064C119.137 250.203 120.805 276.793 122.182 284.588C123.715 293.063 128.332 313.472 140.962 304.861C154.755 295.453 148.411 264.45 134.443 257.317Z" fill="white"/>
<path d="M135.239 307.932C134.219 307.937 133.208 307.732 132.271 307.33C127.227 305.211 123.502 297.611 121.213 284.763C120.184 278.931 118.729 261.438 125.325 256.364C127.673 254.537 130.719 254.421 134.346 256.151L134.89 256.423C142.766 260.446 148.799 271.973 149.575 284.257C150.196 293.976 147.247 301.751 141.524 305.639C139.712 307.028 137.519 307.829 135.239 307.932V307.932ZM129.555 256.948C128.466 256.925 127.403 257.282 126.548 257.958C121.213 262.079 122.008 277.843 123.172 284.413C125.888 299.535 130.137 304.317 133.047 305.483C135.219 306.397 137.625 305.93 140.399 304.025C145.521 300.527 148.159 293.374 147.577 284.374C146.859 272.867 141.136 261.865 133.997 258.211L133.532 257.978C132.295 257.354 130.938 257.003 129.555 256.948Z" fill="#231F20"/>
<path d="M223.49 377.888C223.235 377.889 222.99 377.793 222.803 377.62C222.616 377.447 222.501 377.21 222.481 376.955C221.783 366.984 214.003 345.078 213.926 344.864C213.88 344.74 213.859 344.608 213.864 344.476C213.869 344.345 213.901 344.215 213.957 344.096C214.013 343.976 214.092 343.869 214.19 343.781C214.288 343.692 214.403 343.624 214.527 343.581C214.777 343.498 215.049 343.514 215.287 343.626C215.525 343.739 215.712 343.938 215.808 344.183C216.137 345.097 223.762 366.556 224.479 376.819C224.49 376.951 224.474 377.083 224.433 377.209C224.391 377.335 224.325 377.451 224.239 377.55C224.152 377.65 224.046 377.731 223.927 377.789C223.809 377.847 223.68 377.881 223.548 377.888H223.49Z" fill="#231F20"/>
<path d="M344.003 391.689L305.591 382.378L302.332 391.689L341.248 402.088L344.003 391.689Z" fill="white"/>
<path d="M341.248 403.099H340.976L302.06 392.7C301.927 392.662 301.804 392.598 301.697 392.511C301.59 392.424 301.502 392.316 301.439 392.194C301.381 392.069 301.352 391.933 301.352 391.796C301.352 391.658 301.381 391.522 301.439 391.397L304.737 382.067C304.821 381.833 304.988 381.638 305.206 381.52C305.424 381.402 305.679 381.368 305.92 381.426L344.313 390.736C344.443 390.766 344.566 390.823 344.673 390.903C344.78 390.984 344.869 391.086 344.934 391.203C345.009 391.312 345.059 391.437 345.079 391.568C345.099 391.7 345.089 391.834 345.05 391.961L342.295 402.36C342.222 402.618 342.056 402.839 341.83 402.982C341.649 403.072 341.448 403.112 341.248 403.099V403.099ZM303.631 391.009L340.491 400.863L342.741 392.427L306.211 383.583L303.631 391.009Z" fill="#231F20"/>
<path d="M213.401 279.962C212.528 279.993 211.669 279.728 210.965 279.209C210.261 278.69 209.752 277.949 209.521 277.104L202.983 254.907C202.813 254.393 202.751 253.849 202.803 253.31C202.854 252.77 203.018 252.248 203.283 251.776C203.548 251.304 203.908 250.892 204.341 250.568C204.774 250.243 205.269 250.013 205.796 249.892L213.556 247.598C214.055 247.438 214.582 247.381 215.103 247.43C215.625 247.479 216.131 247.634 216.592 247.884C217.052 248.135 217.458 248.477 217.783 248.888C218.108 249.3 218.346 249.774 218.484 250.28L225.022 272.478C225.317 273.489 225.201 274.575 224.699 275.5C224.198 276.425 223.351 277.114 222.344 277.415V277.415L214.584 279.709C214.206 279.855 213.806 279.94 213.401 279.962ZM214.623 249.445C214.43 249.415 214.234 249.415 214.041 249.445L206.281 251.738C206.018 251.802 205.771 251.92 205.556 252.085C205.342 252.25 205.164 252.458 205.034 252.696C204.904 252.934 204.826 253.197 204.803 253.467C204.781 253.737 204.815 254.009 204.904 254.265L211.442 276.443C211.505 276.707 211.623 276.954 211.788 277.17C211.952 277.385 212.16 277.563 212.398 277.693C212.635 277.823 212.897 277.902 213.167 277.924C213.437 277.947 213.708 277.912 213.964 277.824L221.724 275.549C221.982 275.476 222.222 275.351 222.429 275.18C222.636 275.009 222.805 274.798 222.926 274.558C223.059 274.328 223.143 274.073 223.173 273.808C223.203 273.544 223.178 273.277 223.101 273.022L216.563 250.825C216.439 250.412 216.18 250.052 215.829 249.802C215.478 249.552 215.054 249.426 214.623 249.445Z" fill="#D1D3D4"/>
<path d="M231.909 274.616C231.746 274.617 231.586 274.577 231.443 274.5C231.33 274.44 231.23 274.357 231.15 274.257C231.069 274.156 231.011 274.041 230.978 273.917L224.149 250.708C224.081 250.52 224.081 250.313 224.149 250.125C225.565 245.985 226.729 241.028 227.874 236.247C230.454 225.381 232.491 216.809 236.914 216.517C237.373 216.494 237.832 216.568 238.26 216.736C238.688 216.903 239.076 217.16 239.397 217.489C242.656 220.735 242.656 232.106 242.656 236.285C246.11 235.197 255.422 232.398 259.573 233.02C260.912 233.195 265.296 235.974 265.684 263.945C265.687 264.156 265.621 264.362 265.494 264.531C265.368 264.7 265.189 264.822 264.986 264.878L232.18 274.597L231.909 274.616ZM226.089 250.455L232.568 272.439L263.725 263.226C263.492 249.62 261.688 235.275 259.321 234.944C254.743 234.322 242.074 238.501 241.861 238.56C241.711 238.606 241.552 238.616 241.398 238.588C241.243 238.561 241.097 238.497 240.972 238.402C240.847 238.307 240.746 238.184 240.678 238.042C240.61 237.901 240.577 237.745 240.581 237.588C240.775 233.292 240.678 221.552 237.962 218.889C237.844 218.747 237.695 218.634 237.527 218.56C237.359 218.486 237.175 218.452 236.992 218.461C233.985 218.656 231.715 228.18 229.697 236.694C228.669 241.417 227.505 246.296 226.089 250.455V250.455Z" fill="#D1D3D4"/>
<path d="M295.25 297.708C292.932 297.716 290.618 297.495 288.343 297.047C284.466 296.377 280.78 294.87 277.541 292.632C274.301 290.393 271.586 287.476 269.584 284.082C269.522 283.97 269.484 283.847 269.47 283.72C269.457 283.592 269.468 283.464 269.504 283.341C269.54 283.218 269.6 283.104 269.68 283.004C269.761 282.905 269.859 282.822 269.972 282.761C270.084 282.699 270.207 282.661 270.334 282.647C270.461 282.634 270.589 282.645 270.712 282.681C270.834 282.717 270.948 282.777 271.048 282.858C271.147 282.938 271.23 283.037 271.291 283.149C273.16 286.297 275.689 288.999 278.704 291.07C281.719 293.141 285.147 294.531 288.751 295.142C296.085 296.375 303.614 295.616 310.556 292.946C310.801 292.861 311.069 292.877 311.302 292.99C311.535 293.103 311.713 293.304 311.798 293.549C311.883 293.793 311.867 294.062 311.754 294.295C311.642 294.529 311.441 294.707 311.197 294.793C306.081 296.65 300.691 297.636 295.25 297.708V297.708Z" fill="#D1D3D4"/>
</svg>
