<svg width="312" height="284" viewBox="0 0 312 284" fill="none" xmlns="http://www.w3.org/2000/svg">
<path d="M179.756 195.366L186.16 213.468L175.152 212.362L168.738 196.316L179.756 195.366V195.366Z" fill="white"/>
<mask id="mask0_0_494" style="mask-type:alpha" maskUnits="userSpaceOnUse" x="168" y="195" width="19" height="19">
<path fill-rule="evenodd" clip-rule="evenodd" d="M179.757 195.366L186.161 213.468L175.153 212.362L168.739 196.316L179.757 195.366V195.366Z" fill="white"/>
</mask>
<g mask="url(#mask0_0_494)">
<path d="M171.622 199.194C161.114 202.894 180.276 204.127 182.996 207.553C185.715 210.979 186.581 204.417 186.581 204.417L182.872 197.412L172.24 196.727" fill="white"/>
</g>
<path fill-rule="evenodd" clip-rule="evenodd" d="M179.756 195.366L186.16 213.468L175.152 212.362L168.738 196.316L179.756 195.366V195.366Z" stroke="#1B1B1B" stroke-width="0.7" stroke-linecap="round" stroke-linejoin="round"/>
<path d="M220.577 229.69L224.532 249.93L213.521 250.516L208.914 229.033L220.577 229.69V229.69Z" fill="white"/>
<mask id="mask1_0_494" style="mask-type:alpha" maskUnits="userSpaceOnUse" x="208" y="229" width="17" height="22">
<path fill-rule="evenodd" clip-rule="evenodd" d="M220.577 229.69L224.532 249.93L213.521 250.516L208.914 229.033L220.577 229.69V229.69Z" fill="white"/>
</mask>
<g mask="url(#mask1_0_494)">
<path d="M208.089 235.509C205.248 243.731 225.646 239.694 227.13 247.16C228.613 254.626 227.13 235.92 227.13 235.92L211.182 230.576" fill="white"/>
</g>
<path fill-rule="evenodd" clip-rule="evenodd" d="M220.577 229.69L224.532 249.93L213.521 250.516L208.914 229.033L220.577 229.69V229.69Z" stroke="#1B1B1B" stroke-width="0.7" stroke-linecap="round" stroke-linejoin="round"/>
<path d="M194.354 38.091L174.763 24.174L201.231 13.5216C201.231 13.5216 205.22 16.3595 210.098 14.9736C210.098 14.9736 216.564 18.8182 215.853 16.587C215.578 15.7217 203.673 7.5736 200.456 8.06465C198.149 8.41677 174.534 15.1807 161.798 19.9C157.733 21.4061 156.713 25.9875 159.841 28.6919L185.201 50.622" fill="white"/>
<mask id="mask2_0_494" style="mask-type:alpha" maskUnits="userSpaceOnUse" x="158" y="8" width="58" height="43">
<path fill-rule="evenodd" clip-rule="evenodd" d="M194.354 38.091L174.763 24.174L201.231 13.5216C201.231 13.5216 205.22 16.3595 210.098 14.9736C210.098 14.9736 216.564 18.8182 215.853 16.587C215.578 15.7217 203.673 7.5736 200.456 8.06465C198.149 8.41677 174.534 15.1807 161.798 19.9C157.733 21.4061 156.713 25.9875 159.841 28.6919L185.201 50.622" fill="white"/>
</mask>
<g mask="url(#mask2_0_494)">
<path d="M186.958 31.1283C175.702 35.5032 179.425 42.2153 171.753 38.993C164.081 35.7706 173.353 51.5478 173.353 51.5478L179.658 50.0771L186.958 38.0386" fill="white"/>
</g>
<path d="M194.354 38.091L174.763 24.174L201.231 13.5216C201.231 13.5216 205.22 16.3595 210.098 14.9736C210.098 14.9736 216.564 18.8182 215.853 16.587C215.578 15.7217 203.673 7.5736 200.456 8.06465C198.149 8.41677 174.534 15.1807 161.798 19.9C157.733 21.4061 156.713 25.9875 159.841 28.6919L185.201 50.622" stroke="#1B1B1B" stroke-width="0.7" stroke-linecap="round" stroke-linejoin="round"/>
<path d="M166.943 203.848C168.739 204.417 186.624 197.54 186.624 197.54L170.439 152.015L216.844 106.205L184.983 96.87L144.431 140.428C141.375 143.84 140.721 148.775 142.782 152.866C142.782 152.866 164.473 203.066 166.943 203.848Z" fill="#1B1B1B"/>
<mask id="mask3_0_494" style="mask-type:alpha" maskUnits="userSpaceOnUse" x="141" y="96" width="76" height="108">
<path fill-rule="evenodd" clip-rule="evenodd" d="M166.943 203.848C168.739 204.417 186.624 197.54 186.624 197.54L170.439 152.015L216.844 106.205L184.983 96.87L144.431 140.428C141.375 143.84 140.721 148.775 142.782 152.866C142.782 152.866 164.473 203.066 166.943 203.848Z" fill="white"/>
</mask>
<g mask="url(#mask3_0_494)">
<path d="M191.753 104.312C183.688 125.772 183.882 137.013 172.686 149.747C165.134 158.335 204.605 140.869 204.605 140.869L191.753 104.312Z" fill="#1B1B1B"/>
<ellipse cx="141.589" cy="147.367" rx="6.41445" ry="13.4374" fill="#1B1B1B"/>
</g>
<path fill-rule="evenodd" clip-rule="evenodd" d="M166.943 203.848C168.739 204.417 186.624 197.54 186.624 197.54L170.439 152.015L216.844 106.205L184.983 96.87L144.431 140.428C141.375 143.84 140.721 148.775 142.782 152.866C142.782 152.866 164.473 203.066 166.943 203.848Z" stroke="#1B1B1B" stroke-width="0.7" stroke-linecap="round" stroke-linejoin="round"/>
<path d="M149.805 224.815L187.186 224.611C187.714 224.606 188.213 224.366 188.545 223.955C188.878 223.545 189.009 223.007 188.903 222.489L186.186 209.109L172.008 211.262C172.008 211.262 175.523 219.394 162.386 214.941C149.25 210.488 149.805 224.815 149.805 224.815Z" fill="#1B1B1B"/>
<mask id="mask4_0_494" style="mask-type:alpha" maskUnits="userSpaceOnUse" x="149" y="209" width="40" height="16">
<path fill-rule="evenodd" clip-rule="evenodd" d="M149.805 224.815L187.186 224.611C187.714 224.606 188.213 224.366 188.545 223.955C188.878 223.545 189.009 223.007 188.903 222.489L186.186 209.109L172.008 211.262C172.008 211.262 175.523 219.394 162.386 214.941C149.25 210.488 149.805 224.815 149.805 224.815Z" fill="white"/>
</mask>
<g mask="url(#mask4_0_494)">
<rect x="145.631" y="222.242" width="44.8891" height="9.8942" fill="white" stroke="#1B1B1B" stroke-width="0.7" stroke-linecap="round" stroke-linejoin="round"/>
</g>
<path fill-rule="evenodd" clip-rule="evenodd" d="M149.805 224.815L187.186 224.611C187.714 224.606 188.213 224.366 188.545 223.955C188.878 223.545 189.009 223.007 188.903 222.489L186.186 209.109L172.008 211.262C172.008 211.262 175.523 219.394 162.386 214.941C149.25 210.488 149.805 224.815 149.805 224.815Z" stroke="#1B1B1B" stroke-width="0.7" stroke-linecap="round" stroke-linejoin="round"/>
<path d="M187.83 114.093L184.294 158.92C184.186 160.279 184.309 161.647 184.658 162.965C187.648 174.239 199.996 225.092 203.508 234.991C205.238 239.869 224.997 237.109 224.997 237.109L209.25 162.451C209.25 162.451 221.285 104.865 216.844 96.87C212.945 89.8492 189.314 95.2759 189.314 95.2759" fill="#1B1B1B"/>
<mask id="mask5_0_494" style="mask-type:alpha" maskUnits="userSpaceOnUse" x="184" y="93" width="41" height="145">
<path fill-rule="evenodd" clip-rule="evenodd" d="M187.83 114.093L184.294 158.92C184.186 160.279 184.309 161.647 184.658 162.965C187.648 174.239 199.996 225.092 203.508 234.991C205.238 239.869 224.997 237.109 224.997 237.109L209.25 162.451C209.25 162.451 221.285 104.865 216.844 96.87C212.945 89.8492 189.314 95.2759 189.314 95.2759" fill="white"/>
</mask>
<g mask="url(#mask5_0_494)">
<path d="M186.958 100.553C215.037 105.68 219.891 111.868 212.388 157.945C208.495 181.847 235.229 108.886 235.229 108.886L223.452 84.0072L192.886 84.4932" fill="#1B1B1B"/>
<ellipse cx="183.391" cy="160.088" rx="5.9407" ry="8.73846" fill="#1B1B1B"/>
</g>
<path d="M187.83 114.093L184.294 158.92C184.186 160.279 184.309 161.647 184.658 162.965C187.648 174.239 199.996 225.092 203.508 234.991C205.238 239.869 224.997 237.109 224.997 237.109L209.25 162.451C209.25 162.451 221.285 104.865 216.844 96.87C212.945 89.8492 189.314 95.2759 189.314 95.2759" stroke="#1B1B1B" stroke-width="0.7" stroke-linecap="round" stroke-linejoin="round"/>
<path d="M207.716 43.2773L186.324 29.4916C186.324 29.4916 178.654 37.4222 175.859 44.8169L196.368 60.1422L207.716 43.2773Z" fill="white"/>
<mask id="mask6_0_494" style="mask-type:alpha" maskUnits="userSpaceOnUse" x="175" y="29" width="33" height="32">
<path fill-rule="evenodd" clip-rule="evenodd" d="M207.716 43.2773L186.324 29.4916C186.324 29.4916 178.654 37.4222 175.859 44.8169L196.368 60.1422L207.716 43.2773Z" fill="white"/>
</mask>
<g mask="url(#mask6_0_494)">
<path d="M182.573 49.834C191.077 59.6978 198.895 47.7041 198.895 47.7041L194.392 62.1161L176.773 63.9475" fill="white"/>
</g>
<path fill-rule="evenodd" clip-rule="evenodd" d="M207.716 43.2773L186.324 29.4916C186.324 29.4916 178.654 37.4222 175.859 44.8169L196.368 60.1422L207.716 43.2773Z" stroke="#1B1B1B" stroke-width="0.7" stroke-linecap="round" stroke-linejoin="round"/>
<path d="M188.18 260.865L226.165 260.827C226.614 260.826 227.039 260.619 227.318 260.267C227.597 259.914 227.7 259.454 227.599 259.016L224.988 247.654L209.985 247.16C209.985 247.16 213.739 255.383 200.472 250.88C187.205 246.377 188.18 260.865 188.18 260.865Z" fill="#1B1B1B"/>
<mask id="mask7_0_494" style="mask-type:alpha" maskUnits="userSpaceOnUse" x="188" y="247" width="40" height="14">
<path fill-rule="evenodd" clip-rule="evenodd" d="M188.18 260.865L226.165 260.827C226.614 260.826 227.039 260.619 227.318 260.267C227.597 259.914 227.7 259.454 227.599 259.016L224.988 247.654L209.985 247.16C209.985 247.16 213.739 255.383 200.472 250.88C187.205 246.377 188.18 260.865 188.18 260.865Z" fill="white"/>
</mask>
<g mask="url(#mask7_0_494)">
<rect x="186.153" y="258.142" width="45.5193" height="10.0279" fill="white" stroke="#1B1B1B" stroke-width="0.7" stroke-linecap="round" stroke-linejoin="round"/>
</g>
<path fill-rule="evenodd" clip-rule="evenodd" d="M188.18 260.865L226.165 260.827C226.614 260.826 227.039 260.619 227.318 260.267C227.597 259.914 227.7 259.454 227.599 259.016L224.988 247.654L209.985 247.16C209.985 247.16 213.739 255.383 200.472 250.88C187.205 246.377 188.18 260.865 188.18 260.865Z" stroke="#1B1B1B" stroke-width="0.7" stroke-linecap="round" stroke-linejoin="round"/>
<path d="M205.126 41.3993C205.126 41.3993 223.627 41.6653 227.205 43.2773C230.783 44.8893 227.955 62.9527 227.955 62.9527L219.414 103.31C219.414 103.31 197.602 106.895 181.813 98.2091C182.577 71.9253 192.252 55.7681 198.895 47.7041" fill="white"/>
<mask id="mask8_0_494" style="mask-type:alpha" maskUnits="userSpaceOnUse" x="181" y="41" width="49" height="64">
<path fill-rule="evenodd" clip-rule="evenodd" d="M205.126 41.3993C205.126 41.3993 223.627 41.6653 227.205 43.2773C230.783 44.8893 227.955 62.9527 227.955 62.9527L219.414 103.31C219.414 103.31 197.602 106.895 181.813 98.2091C182.577 71.9253 192.252 55.7681 198.895 47.7041" fill="white"/>
</mask>
<g mask="url(#mask8_0_494)">
<path d="M218.275 59.3398C228.41 83.4806 217.547 109.02 185.592 104.729C153.636 100.437 198.118 117.967 198.118 117.967L232.51 114.765L235.229 71.9356L221.031 56.1375L218.275 59.3398Z" fill="white"/>
</g>
<path d="M205.126 41.3993C205.126 41.3993 223.627 41.6653 227.205 43.2773C230.783 44.8893 227.955 62.9527 227.955 62.9527L219.414 103.31C219.414 103.31 197.602 106.895 181.813 98.2091C182.577 71.9253 192.252 55.7681 198.895 47.7041" stroke="#1B1B1B" stroke-width="0.7" stroke-linecap="round" stroke-linejoin="round"/>
<path d="M222.83 97.5215C222.83 97.5215 211.859 101.956 209.249 103.865C209.249 106.09 219.413 103.31 219.413 103.31C221.798 102.684 219.878 104.429 221.284 104.583C225.741 105.071 246.715 91.2771 258.344 84.6891C261.595 82.8475 262.188 78.6016 259.556 76.0153L233.712 50.6219L223.93 61.2248L243.055 78.9595L222.83 97.5215Z" fill="white"/>
<mask id="mask9_0_494" style="mask-type:alpha" maskUnits="userSpaceOnUse" x="209" y="50" width="53" height="55">
<path fill-rule="evenodd" clip-rule="evenodd" d="M222.831 97.5215C222.831 97.5215 211.86 101.956 209.25 103.865C209.25 106.09 219.414 103.31 219.414 103.31C221.799 102.684 219.879 104.429 221.285 104.583C225.742 105.071 246.716 91.2771 258.345 84.6891C261.596 82.8475 262.189 78.6016 259.557 76.0153L233.713 50.6219L223.931 61.2248L243.056 78.9595L222.831 97.5215Z" fill="white"/>
</mask>
<g mask="url(#mask9_0_494)">
<path d="M234.424 73.4754C244.932 78.4225 248.011 67.4331 251.787 68.3818C255.564 69.3306 250.99 61.7094 250.99 61.7094L243.819 63.0464" fill="white"/>
</g>
<path fill-rule="evenodd" clip-rule="evenodd" d="M222.83 97.5215C222.83 97.5215 211.859 101.956 209.249 103.865C209.249 106.09 219.413 103.31 219.413 103.31C221.798 102.684 219.878 104.429 221.284 104.583C225.741 105.071 246.715 91.2771 258.344 84.6891C261.595 82.8475 262.188 78.6016 259.556 76.0153L233.712 50.6219L223.93 61.2248L243.055 78.9595L222.83 97.5215Z" stroke="#1B1B1B" stroke-width="0.7" stroke-linecap="round" stroke-linejoin="round"/>
<path d="M204.799 32.5076C205.066 33.7245 207.699 47.3082 207.699 47.3082L221.608 42.4206L216.939 28.769L204.799 32.5076Z" fill="white"/>
<mask id="mask10_0_494" style="mask-type:alpha" maskUnits="userSpaceOnUse" x="204" y="28" width="18" height="20">
<path fill-rule="evenodd" clip-rule="evenodd" d="M204.799 32.5075C205.066 33.7244 207.699 47.3081 207.699 47.3081L221.608 42.4205L216.939 28.7689L204.799 32.5075Z" fill="white"/>
</mask>
<g mask="url(#mask10_0_494)">
<path d="M205.042 42.278C205.618 33.4756 215.772 29.0645 216.734 30.8217L204.799 29.2357L202.925 36.2635L201.904 38.9929" fill="white"/>
</g>
<path fill-rule="evenodd" clip-rule="evenodd" d="M204.799 32.5076C205.066 33.7245 207.699 47.3082 207.699 47.3082L221.608 42.4206L216.939 28.769L204.799 32.5076Z" stroke="#1B1B1B" stroke-width="0.7" stroke-linecap="round" stroke-linejoin="round"/>
<path d="M208.781 35.1492C205.429 33.4598 199.527 30.2438 199.032 28.3207C197.161 21.0569 215.137 13.7932 216.138 13.7932C217.138 13.7932 228.612 23.7588 227.945 26.4882C227.63 27.7753 223.859 30.0224 219.962 32.0377" fill="white"/>
<path d="M208.781 35.1492C205.429 33.4598 199.527 30.2438 199.032 28.3207C197.161 21.0569 215.137 13.7932 216.138 13.7932C217.138 13.7932 228.612 23.7588 227.945 26.4882C227.63 27.7753 223.859 30.0224 219.962 32.0377" stroke="#1B1B1B" stroke-width="0.7" stroke-linecap="round" stroke-linejoin="round"/>
<path d="M216.472 32.0741C216.405 35.3748 220.674 38.9929 220.674 38.9929C220.674 38.9929 231.551 29.206 229.034 26.2767C226.518 23.3473 217.294 12.3121 216.049 12.9046C214.804 13.497 213.025 18.6596 216.583 21.0294C216.583 21.0294 212.047 25.0072 216.316 29.1542C220.585 33.3012 216.472 32.0741 216.472 32.0741Z" fill="#1B1B1B" stroke="#1B1B1B" stroke-width="0.7" stroke-linecap="round" stroke-linejoin="round"/>
<path d="M213.435 27.2138C228.591 26.5856 225.922 33.1879 216.449 34.4831Z" fill="white"/>
<path d="M213.435 27.2138C228.591 26.5856 225.922 33.1879 216.449 34.4831" stroke="#1B1B1B" stroke-width="0.7" stroke-linecap="round" stroke-linejoin="round"/>
<path d="M226.188 33.8937C226.188 33.8937 245.75 25.608 218.179 14.2671L226.188 33.8937Z" fill="white" stroke="#1B1B1B" stroke-width="0.7" stroke-linecap="round" stroke-linejoin="round"/>
<path d="M219.393 15.4404C219.393 15.4404 216.819 1.14052 212.388 1.05589C207.956 0.971265 219.393 16.136 219.393 16.136V15.4404Z" fill="white" stroke="#1B1B1B" stroke-width="0.7" stroke-linecap="round" stroke-linejoin="round"/>
<path d="M227.624 43.569L249.901 63.3486C249.901 63.3486 241.637 75.7591 237.689 77.0072L216.844 61.0641" fill="white"/>
<path d="M227.624 43.569L249.901 63.3486C249.901 63.3486 241.637 75.7591 237.689 77.0072L216.844 61.0641" stroke="#1B1B1B" stroke-width="0.7" stroke-linecap="round" stroke-linejoin="round"/>
<path d="M209.249 51.2993C209.249 51.2993 209.177 47.6676 207.698 47.3081L220.73 39.8556C220.73 39.8556 222.368 39.8691 223.367 41.9415L209.249 51.2993Z" fill="white" stroke="#1B1B1B" stroke-width="0.7" stroke-linecap="round" stroke-linejoin="round"/>
<path d="M203.928 48.908C203.928 48.908 205.746 46.6261 207.699 47.3081L205.705 40.1683L204.107 41.6725L203.928 48.908Z" fill="white" stroke="#1B1B1B" stroke-width="0.7" stroke-linecap="round" stroke-linejoin="round"/>
<ellipse cx="205.415" cy="51.9512" rx="0.9194" ry="0.92288" fill="#1B1B1B"/>
<ellipse cx="203.267" cy="56.7144" rx="0.9194" ry="0.92288" fill="#1B1B1B"/>
<path d="M162.548 197.84C162.548 197.84 164.546 203.882 167.277 204.994C167.277 204.994 188.522 202.052 187.532 197.581L184.256 190.086C181.992 197.306 162.548 197.84 162.548 197.84Z" fill="white" stroke="#1B1B1B" stroke-width="0.7" stroke-linecap="round" stroke-linejoin="round"/>
<path d="M202.033 233.063C202.033 233.063 202.774 239.089 205.341 240.901C205.341 240.901 226.188 241.552 226.002 236.981L224.144 229.049C220.744 235.785 202.033 233.063 202.033 233.063Z" fill="white" stroke="#1B1B1B" stroke-width="0.7" stroke-linecap="round" stroke-linejoin="round"/>
<path d="M208.088 21.203V21.203C208.283 21.3488 208.528 21.4107 208.77 21.375C209.011 21.3394 209.228 21.209 209.373 21.0128L210.298 19.7629C210.601 19.3541 210.516 18.7776 210.109 18.4729V18.4729C209.913 18.3271 209.668 18.2652 209.426 18.3009C209.185 18.3366 208.968 18.4669 208.823 18.6631L207.898 19.913C207.596 20.3219 207.68 20.8984 208.088 21.203V21.203Z" fill="#1B1B1B"/>
<path d="M211.284 15.5078C213.585 17.0697 213.395 18.3661 211.893 17.4839C210.392 16.6017 209.781 14.4873 211.284 15.5078Z" fill="#1B1B1B"/>
<path d="M207.428 18.3326C203.422 18.0544 199.197 20.4405 202.821 21.8943Z" fill="white"/>
<path d="M207.428 18.3326C203.422 18.0544 199.197 20.4405 202.821 21.8943" stroke="#1B1B1B" stroke-width="0.7" stroke-linecap="round" stroke-linejoin="round"/>
<g opacity="0.27">
<ellipse cx="210.776" cy="24.4712" rx="2.6586" ry="2.38897" fill="white"/>
</g>
<path d="M207.188 25.7416C205.192 26.5176 203.808 25.255 203.808 25.255Z" fill="white"/>
<path d="M207.188 25.7416C205.192 26.5176 203.808 25.255 203.808 25.255" stroke="#1B1B1B" stroke-width="0.7" stroke-linecap="round" stroke-linejoin="round"/>
<path d="M218.13 29.6168C218.569 29.3338 219.242 29.5539 219.431 30.042C219.619 30.5302 219.27 31.1484 218.756 31.2366" stroke="#1B1B1B" stroke-width="0.7" stroke-linecap="round" stroke-linejoin="round"/>
<path d="M172.289 24.02C173.307 24.3329 174.371 24.47 175.435 24.4254" stroke="#1B1B1B" stroke-width="0.7" stroke-linecap="round" stroke-linejoin="round"/>
<path d="M243.269 78.9746C244.162 79.1234 245.073 79.1259 245.967 78.9821" stroke="#1B1B1B" stroke-width="0.7" stroke-linecap="round" stroke-linejoin="round"/>
<path d="M205.51 162.099C206.584 162.608 207.828 162.614 208.907 162.117" stroke="white" stroke-width="0.7" stroke-linecap="round" stroke-linejoin="round"/>
<path d="M170.328 152.049C169.304 152.452 168.17 152.479 167.128 152.125" stroke="white" stroke-width="0.7" stroke-linecap="round" stroke-linejoin="round"/>
<path d="M168.595 211.346C169.679 212.637 170.817 213.88 172.009 215.075C169.904 214.644 167.817 214.128 165.751 213.527" stroke="#1B1B1B" stroke-width="0.7" stroke-linecap="round" stroke-linejoin="round"/>
<path d="M205.371 247.936C207.035 248.674 208.518 249.767 209.715 251.139L205.452 250.722" stroke="#1B1B1B" stroke-width="0.7" stroke-linecap="round" stroke-linejoin="round"/>
<path d="M190.948 88.0547C194.843 91.0854 199.451 93.064 204.33 93.8006" stroke="#1B1B1B" stroke-width="0.7" stroke-linecap="round" stroke-linejoin="round"/>
<path d="M184.594 39.3214C184.66 40.1727 184.254 40.9915 183.536 41.4544" stroke="#1B1B1B" stroke-width="0.7" stroke-linecap="round" stroke-linejoin="round"/>
<path d="M187.83 114.093L185.675 141.41Z" fill="white"/>
<path d="M187.83 114.093L185.675 141.41" stroke="white" stroke-width="0.7" stroke-linecap="round" stroke-linejoin="round"/>
<path d="M202.657 112.752C201.251 116.37 203.005 120.447 206.598 121.913" stroke="white" stroke-width="0.7" stroke-linecap="round" stroke-linejoin="round"/>
<path d="M254.612 162.55L189.011 96.7001C184.262 91.9254 177.805 89.2408 171.071 89.2408C164.336 89.2408 157.879 91.9254 153.13 96.7001L87.1909 162.889C84.8086 165.283 83.4716 168.523 83.4727 171.9V171.9L171.071 220.238L258.669 171.9V171.9C258.543 168.383 257.095 165.044 254.612 162.55Z" fill="white" stroke="#1B1B1B" stroke-width="0.7" stroke-linecap="round" stroke-linejoin="round"/>
<rect x="112.606" y="97.3214" width="121.357" height="121.815" rx="20.0264" fill="white" stroke="#1B1B1B" stroke-width="0.7" stroke-linecap="round" stroke-linejoin="round"/>
<rect x="102.74" y="103.31" width="136.662" height="137.179" rx="20.0264" fill="white" stroke="#1B1B1B" stroke-width="0.7" stroke-linecap="round" stroke-linejoin="round"/>
<rect x="119.135" y="131.058" width="103.873" height="12.9731" rx="2.0944" fill="white" stroke="#1B1B1B" stroke-width="0.7" stroke-linecap="round" stroke-linejoin="round"/>
<rect x="119.135" y="154.217" width="70.9117" height="12.9731" rx="2.0944" fill="white" stroke="#1B1B1B" stroke-width="0.7" stroke-linecap="round" stroke-linejoin="round"/>
<path d="M83.4727 171.9V242.159C83.4642 249.711 86.1426 257.02 91.0288 262.778L152.468 209.973L83.4727 171.9Z" fill="white" stroke="#1B1B1B" stroke-width="0.7" stroke-linecap="round" stroke-linejoin="round"/>
<path d="M258.669 171.9L189.674 209.973L251.113 262.778C255.999 257.02 258.677 249.711 258.669 242.159V171.9Z" fill="white" stroke="#1B1B1B" stroke-width="0.7" stroke-linecap="round" stroke-linejoin="round"/>
<path d="M189.674 209.973L180.264 201.885C174.979 197.338 167.164 197.338 161.879 201.885L152.468 209.973L91.0293 262.778C96.8575 269.669 105.537 274.053 115.247 274.053H226.895C236.605 274.053 245.285 269.669 251.113 262.778L189.674 209.973Z" fill="white" stroke="#1B1B1B" stroke-width="0.7" stroke-linecap="round" stroke-linejoin="round"/>
<path d="M136.823 113.096L121.22 123.095" stroke="#1B1B1B" stroke-width="0.7" stroke-linecap="round" stroke-linejoin="round"/>
<path d="M185.666 244.823C183.097 246.239 180.394 247.396 177.596 248.278" stroke="#1B1B1B" stroke-width="0.7" stroke-linecap="round" stroke-linejoin="round"/>
<path d="M221.919 179.038C220.912 180.664 219.545 182.036 217.923 183.049" stroke="#1B1B1B" stroke-width="0.7" stroke-linecap="round" stroke-linejoin="round"/>
<path d="M82.4201 263.317L72.887 265.895L58.7584 269.153C55.6282 269.875 53.6219 273.228 54.2716 276.651V276.651C54.8739 279.824 57.5659 281.992 60.5178 281.678C68.5712 280.821 84.3478 279.746 84.3478 279.746L82.4201 263.317Z" fill="white"/>
<mask id="mask11_0_494" style="mask-type:alpha" maskUnits="userSpaceOnUse" x="54" y="263" width="31" height="19">
<path fill-rule="evenodd" clip-rule="evenodd" d="M82.4191 263.317L72.886 265.895L58.7575 269.153C55.6272 269.875 53.6209 273.228 54.2706 276.651V276.651C54.8729 279.824 57.5649 281.992 60.5168 281.678C68.5703 280.821 84.3469 279.746 84.3469 279.746L82.4191 263.317Z" fill="white"/>
</mask>
<g mask="url(#mask11_0_494)">
<path d="M86.5472 284.406C70.5757 282.133 73.5061 267.827 73.5061 267.827L82.4991 270.233L87.3948 277.502" fill="white"/>
</g>
<path fill-rule="evenodd" clip-rule="evenodd" d="M82.4201 263.317L72.887 265.895L58.7584 269.153C55.6282 269.875 53.6219 273.228 54.2716 276.651V276.651C54.8739 279.824 57.5659 281.992 60.5178 281.678C68.5712 280.821 84.3478 279.746 84.3478 279.746L82.4201 263.317Z" stroke="#1B1B1B" stroke-width="0.7" stroke-linecap="round" stroke-linejoin="round"/>
<path d="M80.987 280.12C83.6981 279.523 108.321 278.445 110.816 276.462L92.1455 252.417L89.0372 249.456C83.2823 252.238 72.8867 265.895 72.8867 265.895C72.8867 265.895 75.5932 279.161 80.987 280.12Z" fill="white"/>
<path fill-rule="evenodd" clip-rule="evenodd" d="M80.987 280.12C83.6981 279.523 108.321 278.445 110.816 276.462L92.1455 252.417L89.0372 249.456C83.2823 252.238 72.8867 265.895 72.8867 265.895C72.8867 265.895 75.5932 279.161 80.987 280.12Z" stroke="#1B1B1B" stroke-width="0.7" stroke-linecap="round" stroke-linejoin="round"/>
<path d="M71.8872 271.633C76.4551 263.017 86.8927 243.205 87.3314 241.234C87.8937 238.707 84.5695 224.843 84.1424 224.194C83.7153 223.545 80.9754 220.631 83.0753 230.825C83.331 237.472 80.5015 241.902 80.5015 241.902L55.7285 271.018" fill="white"/>
<path d="M71.8872 271.633C76.4551 263.017 86.8927 243.205 87.3314 241.234C87.8937 238.707 84.5695 224.843 84.1424 224.194C83.7153 223.545 80.9754 220.631 83.0753 230.825C83.331 237.472 80.5015 241.902 80.5015 241.902L55.7285 271.018" stroke="#1B1B1B" stroke-width="0.7" stroke-linecap="round" stroke-linejoin="round"/>
<path d="M291.158 269.155L286.502 271.317L265.939 274.293L260.554 260.673L285.285 258.598" fill="white"/>
<mask id="mask12_0_494" style="mask-type:alpha" maskUnits="userSpaceOnUse" x="260" y="258" width="32" height="17">
<path fill-rule="evenodd" clip-rule="evenodd" d="M291.158 269.155L286.502 271.317L265.939 274.293L260.554 260.673L285.285 258.598" fill="white"/>
</mask>
<g mask="url(#mask12_0_494)">
<path d="M268.768 256.353C278.444 267.899 275.856 277.811 275.856 277.811L257.039 279.468L261.584 252.114" fill="white"/>
</g>
<path d="M291.158 269.155L286.502 271.317L265.939 274.293L260.554 260.673L285.285 258.598" stroke="#1B1B1B" stroke-width="0.7" stroke-linecap="round" stroke-linejoin="round"/>
<path d="M277.674 258.978C277.674 258.978 282.484 258.332 286.567 257.266C288.323 256.808 290.185 257.402 291.353 258.791C311.087 282.307 311.075 281.62 311.075 281.62C302.047 287.097 292.155 270.649 284.306 271.635C284.306 271.635 287.03 262.348 277.674 258.978Z" fill="#1B1B1B" stroke="#1B1B1B" stroke-width="0.7" stroke-linecap="round" stroke-linejoin="round"/>
<path d="M221.894 266.877L220.981 261.471L211.901 241.228L200.911 246.085L210.541 267.4" fill="white"/>
<mask id="mask13_0_494" style="mask-type:alpha" maskUnits="userSpaceOnUse" x="200" y="241" width="22" height="27">
<path fill-rule="evenodd" clip-rule="evenodd" d="M221.894 266.876L220.981 261.471L211.901 241.227L200.911 246.085L210.541 267.4" fill="white"/>
</mask>
<g mask="url(#mask13_0_494)">
<path d="M199.716 249.776C210.396 256.506 224.288 251.89 224.288 251.89L214.523 245.099L198.396 245.83" fill="white"/>
</g>
<path d="M221.894 266.877L220.981 261.471L211.901 241.228L200.911 246.085L210.541 267.4" stroke="#1B1B1B" stroke-width="0.7" stroke-linecap="round" stroke-linejoin="round"/>
<path d="M207.793 260.604C207.793 260.604 204.73 268.69 206.371 273.304C238.145 278.596 242.686 277.256 242.686 277.256C241.902 266.064 224.054 273.656 222.945 259.991C222.945 259.991 215.552 267.204 207.793 260.604Z" fill="#1B1B1B" stroke="#1B1B1B" stroke-width="0.7" stroke-linecap="round" stroke-linejoin="round"/>
<path d="M202.446 251.89C202.446 251.89 215.976 252.04 220.394 249.343L209.244 207.961C207.834 202.724 203.409 199.125 198.381 199.125V199.125C195.331 199.125 192.409 200.461 190.279 202.832L143.633 254.737L163.789 268.067L195.085 231.74L202.446 251.89Z" fill="#1B1B1B"/>
<mask id="mask14_0_494" style="mask-type:alpha" maskUnits="userSpaceOnUse" x="143" y="199" width="78" height="70">
<path fill-rule="evenodd" clip-rule="evenodd" d="M202.445 251.89C202.445 251.89 215.975 252.04 220.393 249.343L209.243 207.961C207.833 202.724 203.408 199.125 198.38 199.125V199.125C195.33 199.125 192.408 200.461 190.278 202.832L143.632 254.737L163.788 268.067L195.084 231.74L202.445 251.89Z" fill="white"/>
</mask>
<g mask="url(#mask14_0_494)">
<ellipse cx="201.544" cy="197.922" rx="9.85697" ry="6.81898" fill="#1B1B1B"/>
</g>
<path fill-rule="evenodd" clip-rule="evenodd" d="M202.446 251.89C202.446 251.89 215.976 252.04 220.394 249.343L209.244 207.961C207.834 202.724 203.409 199.125 198.381 199.125V199.125C195.331 199.125 192.409 200.461 190.279 202.832L143.633 254.737L163.789 268.067L195.085 231.74L202.446 251.89Z" stroke="#1B1B1B" stroke-width="0.7" stroke-linecap="round" stroke-linejoin="round"/>
<path d="M168.399 254.415L270.647 259.506C270.647 259.506 273.96 272.717 270.647 277.811H155.091L153.189 253.658" fill="#1B1B1B"/>
<mask id="mask15_0_494" style="mask-type:alpha" maskUnits="userSpaceOnUse" x="153" y="253" width="120" height="25">
<path fill-rule="evenodd" clip-rule="evenodd" d="M168.399 254.415L270.647 259.506C270.647 259.506 273.96 272.717 270.647 277.811H155.091L153.189 253.658" fill="white"/>
</mask>
<g mask="url(#mask15_0_494)">
<path d="M210.051 281.612C155.073 280.98 184.654 263.317 153.36 255.825C139.525 252.514 155.091 277.811 155.091 277.811L162.55 285.365L190.039 284.707L210.051 284.05" fill="#1B1B1B"/>
</g>
<path d="M168.399 254.415L270.647 259.506C270.647 259.506 273.96 272.717 270.647 277.811H155.091L153.189 253.658" stroke="#1B1B1B" stroke-width="0.7" stroke-linecap="round" stroke-linejoin="round"/>
<path d="M88.3438 250.516C88.3438 250.516 97.7232 233.913 124.65 232.451L154.044 267.905L145.389 274.667L108.427 276.586C108.427 276.586 98.754 273.434 92.5431 262.291" fill="white"/>
<mask id="mask16_0_494" style="mask-type:alpha" maskUnits="userSpaceOnUse" x="88" y="232" width="67" height="45">
<path fill-rule="evenodd" clip-rule="evenodd" d="M88.3438 250.516C88.3438 250.516 97.7232 233.913 124.65 232.451L154.044 267.905L145.389 274.667L108.427 276.586C108.427 276.586 98.754 273.434 92.5431 262.291" fill="white"/>
</mask>
<g mask="url(#mask16_0_494)">
<ellipse cx="100.226" cy="241.782" rx="10.9694" ry="13.0376" transform="rotate(-26.976 100.226 241.782)" fill="white" stroke="#1B1B1B" stroke-width="0.7" stroke-linecap="round" stroke-linejoin="round"/>
<path d="M117.562 257.026C123.356 255.683 124.888 251.204 124.888 251.204L130.149 258.357C130.449 261.49 126.819 264.788 122.956 264.173L117.562 257.026Z" fill="white" stroke="#1B1B1B" stroke-width="0.7" stroke-linecap="round" stroke-linejoin="round"/>
</g>
<path d="M88.3438 250.516C88.3438 250.516 97.7232 233.913 124.65 232.451L154.044 267.905L145.389 274.667L108.427 276.586C108.427 276.586 98.754 273.434 92.5431 262.291" stroke="#1B1B1B" stroke-width="0.7" stroke-linecap="round" stroke-linejoin="round"/>
<path d="M94.8632 248.334L90.0781 234.434L102.126 229.859L106.338 242.093" fill="white"/>
<mask id="mask17_0_494" style="mask-type:alpha" maskUnits="userSpaceOnUse" x="90" y="229" width="17" height="20">
<path fill-rule="evenodd" clip-rule="evenodd" d="M94.8632 248.334L90.0781 234.435L102.126 229.859L106.338 242.093" fill="white"/>
</mask>
<g mask="url(#mask17_0_494)">
<path d="M89.5479 247.239C98.248 249.685 103.301 239.65 103.301 239.65L92.9705 239.949L90.1864 243.026L90.514 244.056" fill="white"/>
</g>
<path d="M94.8632 248.334L90.0781 234.434L102.126 229.859L106.338 242.093" stroke="#1B1B1B" stroke-width="0.7" stroke-linecap="round" stroke-linejoin="round"/>
<path d="M105.53 226.318L86.0365 234.714L82.6966 225.455C82.1273 223.877 82.8366 222.093 84.2808 221.471L98.5441 215.328C99.9883 214.706 101.62 215.481 102.19 217.059L105.53 226.318Z" fill="#1B1B1B" stroke="#1B1B1B" stroke-width="0.7" stroke-linecap="round" stroke-linejoin="round"/>
<path d="M99.104 241.584V241.584C94.7448 243.24 89.9828 240.72 88.4679 235.957L84.21 222.569L99.9961 216.574L104.254 229.962C105.769 234.725 103.463 239.929 99.104 241.584Z" fill="white"/>
<mask id="mask18_0_494" style="mask-type:alpha" maskUnits="userSpaceOnUse" x="84" y="216" width="21" height="27">
<path fill-rule="evenodd" clip-rule="evenodd" d="M99.104 241.584V241.584C94.7448 243.24 89.9828 240.72 88.4679 235.957L84.21 222.569L99.9961 216.574L104.254 229.962C105.769 234.725 103.463 239.929 99.104 241.584Z" fill="white"/>
</mask>
<g mask="url(#mask18_0_494)">
<path d="M91.9421 231.973V231.973C91.7788 232.046 91.5933 232.05 91.4267 231.986C91.26 231.921 91.1259 231.793 91.054 231.629L90.5932 230.586C90.4424 230.245 90.5955 229.847 90.9357 229.695V229.695C91.099 229.622 91.2845 229.618 91.4512 229.682C91.6178 229.747 91.7519 229.875 91.8239 230.038L92.2846 231.082C92.4354 231.422 92.2823 231.821 91.9421 231.973Z" fill="#1B1B1B"/>
<path d="M99.2712 228.711V228.711C99.1079 228.784 98.9224 228.788 98.7558 228.724C98.5891 228.659 98.455 228.531 98.3831 228.367L97.9223 227.324C97.7715 226.983 97.9246 226.585 98.2648 226.433V226.433C98.4281 226.36 98.6136 226.356 98.7803 226.42C98.9469 226.485 99.081 226.613 99.1529 226.776L99.6137 227.82C99.7645 228.16 99.6114 228.559 99.2712 228.711Z" fill="#1B1B1B"/>
<path d="M90.8331 227.83C88.6376 228.163 88.9561 229.191 90.3452 229.065C91.7343 228.939 92.2675 227.612 90.8331 227.83Z" fill="#1B1B1B"/>
<path d="M97.5948 225.085C99.4387 223.928 99.6742 224.786 98.5472 225.573C97.4201 226.36 96.39 225.841 97.5948 225.085Z" fill="#1B1B1B"/>
<path d="M96.7521 230.261C96.9664 230.747 96.4325 230.754 95.8787 231C95.3248 231.247 94.9609 231.639 94.7466 231.154C94.5323 230.669 94.8075 230.076 95.3613 229.829C95.9151 229.583 96.5378 229.776 96.7521 230.261Z" fill="white"/>
<g opacity="0.27">
<ellipse cx="92.6581" cy="233.186" rx="1.80823" ry="1.03692" transform="rotate(-19.8008 92.6581 233.186)" fill="white"/>
</g>
<g opacity="0.27">
<ellipse cx="100.183" cy="230.111" rx="1.80823" ry="1.03692" transform="rotate(-19.8008 100.183 230.111)" fill="white"/>
</g>
</g>
<path fill-rule="evenodd" clip-rule="evenodd" d="M99.104 241.584V241.584C94.7448 243.24 89.9828 240.72 88.4679 235.957L84.21 222.569L99.9961 216.574L104.254 229.962C105.769 234.725 103.463 239.929 99.104 241.584Z" stroke="#1B1B1B" stroke-width="0.7" stroke-linecap="round" stroke-linejoin="round"/>
<path d="M94.9668 207.085C92.5517 208.465 91.2611 211.164 91.6909 213.568C87.2585 218.284 80.1429 212.217 84.0893 223.828L85.6003 227.433C85.0369 218.147 92.9987 227.543 96.0398 220.015C96.5981 218.656 97.6597 217.566 99.0031 216.971C99.191 216.886 99.3774 216.791 99.5622 216.685C102.416 215.054 103.7 211.583 102.431 208.932C101.162 206.281 97.8202 205.454 94.9668 207.085Z" fill="#1B1B1B" stroke="#1B1B1B" stroke-width="0.7" stroke-linecap="round" stroke-linejoin="round"/>
<path d="M104.413 228.388L103.502 227.736C103.742 238.454 101.743 231.615 96.641 233.841C91.3756 235.552 93.6889 242.272 87.7943 233.701L87.4492 234.83C87.4492 234.83 88.4011 242.166 96.2492 243.217C98.4747 243.515 100.693 242.673 102.27 240.931C107.83 234.788 104.413 228.388 104.413 228.388Z" fill="#1B1B1B" stroke="#1B1B1B" stroke-width="0.7" stroke-linecap="round" stroke-linejoin="round"/>
<path d="M87.9232 228.905C79.3453 225.597 83.2782 238.171 90.078 234.435Z" fill="white"/>
<path d="M87.9232 228.905C79.3453 225.597 83.2782 238.171 90.078 234.435" stroke="#1B1B1B" stroke-width="0.7" stroke-linecap="round" stroke-linejoin="round"/>
<path d="M100.679 224.061C105.531 215.654 109.582 228.183 102.127 229.859Z" fill="white"/>
<path d="M100.679 224.061C105.531 215.654 109.582 228.183 102.127 229.859" stroke="#1B1B1B" stroke-width="0.7" stroke-linecap="round" stroke-linejoin="round"/>
<path d="M154.044 276.586L132.944 254.197L146.868 246.384L166.124 266.558L154.044 276.586V276.586Z" fill="white"/>
<mask id="mask19_0_494" style="mask-type:alpha" maskUnits="userSpaceOnUse" x="132" y="246" width="35" height="31">
<path fill-rule="evenodd" clip-rule="evenodd" d="M154.044 276.586L132.944 254.197L146.868 246.384L166.124 266.559L154.044 276.586V276.586Z" fill="white"/>
</mask>
<g mask="url(#mask19_0_494)">
<path d="M155.027 243.276C156.092 261.409 138.13 261.485 138.13 261.485L139.575 252.718L150.437 243.998" fill="white"/>
</g>
<path fill-rule="evenodd" clip-rule="evenodd" d="M154.044 276.586L132.944 254.197L146.868 246.384L166.124 266.558L154.044 276.586V276.586Z" stroke="#1B1B1B" stroke-width="0.7" stroke-linecap="round" stroke-linejoin="round"/>
<path d="M126.793 246.385C131.517 253.84 138.13 261.485 138.13 261.485C143.147 261.8 154.044 247.117 154.044 247.117C154.044 247.117 135.686 230.48 123.979 232.491" fill="white"/>
<path d="M126.793 246.385C131.517 253.84 138.13 261.485 138.13 261.485C143.147 261.8 154.044 247.117 154.044 247.117C154.044 247.117 135.686 230.48 123.979 232.491" stroke="#1B1B1B" stroke-width="0.7" stroke-linecap="round" stroke-linejoin="round"/>
<path d="M112.957 273.608L106.681 277.316C106.03 277.701 105.244 277.471 104.926 276.803L98.276 262.828C97.9673 262.131 98.2266 261.313 98.8806 260.921L105.156 257.213C105.808 256.828 106.594 257.057 106.912 257.726L113.561 271.701C113.87 272.398 113.611 273.216 112.957 273.608V273.608Z" fill="#1B1B1B" stroke="#1B1B1B" stroke-width="0.7" stroke-linecap="round" stroke-linejoin="round"/>
<path d="M103.895 265.052L101.991 266.177C101.777 266.314 101.514 266.351 101.27 266.28C101.026 266.209 100.825 266.036 100.718 265.805L99.7893 263.854C99.5653 263.349 99.7535 262.755 100.228 262.471L102.132 261.346C102.346 261.21 102.609 261.172 102.853 261.244C103.096 261.315 103.298 261.488 103.405 261.718L104.334 263.669C104.558 264.175 104.369 264.768 103.895 265.052Z" fill="white" stroke="#1B1B1B" stroke-width="0.7" stroke-linecap="round" stroke-linejoin="round"/>
<path d="M165.417 266.097C167.187 267.088 168.519 268.955 168.894 271.259V271.259C169.634 275.812 166.359 279.946 162.177 279.739L119.18 277.606C119.18 277.606 113.309 278.192 112.558 278.289C111.808 278.387 108.541 278.045 106.378 277.704C104.215 277.363 104.745 275.314 104.745 275.314C102.935 275.314 103.244 272.973 103.244 272.973C99.5362 273.168 100.287 270.485 100.728 270.387C101.17 270.29 108.188 268.827 109.424 268.29C110.66 267.753 108.806 265.802 108.806 265.802C103.642 264.437 105.672 262.29 106.025 262.29C106.378 262.29 109.38 262.729 109.954 262.827C110.528 262.925 117.591 269.753 118.385 269.753C118.848 269.753 135.571 268.05 149.442 266.628" fill="white"/>
<path d="M165.417 266.097C167.187 267.088 168.519 268.955 168.894 271.259V271.259C169.634 275.812 166.359 279.946 162.177 279.739L119.18 277.606C119.18 277.606 113.309 278.192 112.558 278.289C111.808 278.387 108.541 278.045 106.378 277.704C104.215 277.363 104.745 275.314 104.745 275.314C102.935 275.314 103.244 272.973 103.244 272.973C99.5362 273.168 100.287 270.485 100.728 270.387C101.17 270.29 108.188 268.827 109.424 268.29C110.66 267.753 108.806 265.802 108.806 265.802C103.642 264.437 105.672 262.29 106.025 262.29C106.378 262.29 109.38 262.729 109.954 262.827C110.528 262.925 117.591 269.753 118.385 269.753C118.848 269.753 135.571 268.05 149.442 266.628" stroke="#1B1B1B" stroke-width="0.7" stroke-linecap="round" stroke-linejoin="round"/>
<ellipse cx="212.868" cy="265.61" rx="1.46522" ry="5.40822" fill="white" stroke="#1B1B1B" stroke-width="0.7" stroke-linecap="round" stroke-linejoin="round"/>
<path d="M288.195 270.189C288.764 271.83 289.213 273.509 289.54 275.214" stroke="#1B1B1B" stroke-width="0.7" stroke-linecap="round" stroke-linejoin="round"/>
<path d="M287.797 270.595C286.667 271.542 285.832 272.792 285.391 274.199" stroke="#1B1B1B" stroke-width="0.7" stroke-linecap="round" stroke-linejoin="round"/>
<path d="M96.8018 212.236L96.3975 213.437" stroke="white" stroke-width="0.7" stroke-linecap="round" stroke-linejoin="round"/>
<path d="M157.506 271.392C157.351 272.86 156.55 274.182 155.321 275" stroke="white" stroke-width="0.7" stroke-linecap="round" stroke-linejoin="round"/>
<path d="M194.61 226.029C195.553 228.074 195.52 230.435 194.519 232.452" stroke="white" stroke-width="0.7" stroke-linecap="round" stroke-linejoin="round"/>
<path d="M159.918 253.434L180.997 254.518Z" fill="white"/>
<path d="M159.918 253.434L180.997 254.518" stroke="white" stroke-width="0.7" stroke-linecap="round" stroke-linejoin="round"/>
<path d="M63.4945 143.521L59.2715 141.042L55.549 138.857C53.7661 137.807 53.1672 135.513 54.2093 133.725V133.725C54.7073 132.867 55.5267 132.243 56.4862 131.991C57.4457 131.738 58.4662 131.879 59.322 132.381L67.2674 137.044C69.0504 138.094 69.6492 140.388 68.6072 142.176V142.176C68.1092 143.034 67.2898 143.658 66.3303 143.911C65.3708 144.163 64.3502 144.023 63.4945 143.521Z" fill="white" stroke="#1B1B1B" stroke-width="0.7" stroke-linecap="round" stroke-linejoin="round"/>
<path d="M73.43 176.771V176.771C69.3582 179.585 64.1699 179.115 61.8417 175.721L41.4351 145.97C39.1068 142.576 40.5203 137.543 44.5921 134.729V134.729C48.6639 131.915 53.8522 132.385 56.1805 135.78L59.6496 140.837L76.587 165.53C78.9153 168.924 77.5019 173.957 73.43 176.771Z" fill="white"/>
<mask id="mask20_0_494" style="mask-type:alpha" maskUnits="userSpaceOnUse" x="40" y="132" width="38" height="47">
<path fill-rule="evenodd" clip-rule="evenodd" d="M73.4291 176.771V176.771C69.3572 179.585 64.1689 179.115 61.8407 175.721L41.4341 145.971C39.1059 142.576 40.5193 137.543 44.5911 134.729V134.729C48.6629 131.915 53.8512 132.385 56.1795 135.78L59.6486 140.837L76.586 165.53C78.9143 168.924 77.5009 173.957 73.4291 176.771Z" fill="white"/>
</mask>
<g mask="url(#mask20_0_494)">
<path d="M71.1181 144.035C37.4781 132.453 59.0107 170.35 59.0107 170.35L30.4598 161.847L30.2178 135.242L62.6796 129.781" fill="white"/>
</g>
<path fill-rule="evenodd" clip-rule="evenodd" d="M73.43 176.771V176.771C69.3582 179.585 64.1699 179.115 61.8417 175.721L41.4351 145.97C39.1068 142.576 40.5203 137.543 44.5921 134.729V134.729C48.6639 131.915 53.8522 132.385 56.1805 135.78L59.6496 140.837L76.587 165.53C78.9153 168.924 77.5019 173.957 73.43 176.771Z" stroke="#1B1B1B" stroke-width="0.7" stroke-linecap="round" stroke-linejoin="round"/>
<path d="M33.3048 117.293L28.9926 120.82C28.3789 121.322 27.5904 121.559 26.8016 121.478C26.0127 121.397 25.2886 121.005 24.7896 120.389L23.8424 119.222C22.8003 117.937 22.9922 116.052 24.2716 115.003L25.0677 114.352L28.5837 111.477C29.1974 110.974 29.9859 110.737 30.7748 110.818C31.5636 110.899 32.2877 111.291 32.7867 111.907L33.734 113.074C34.776 114.359 34.5842 116.245 33.3048 117.293V117.293Z" fill="white" stroke="#1B1B1B" stroke-width="0.7" stroke-linecap="round" stroke-linejoin="round"/>
<ellipse cx="103.609" cy="80.2078" rx="13.8785" ry="47.4582" transform="rotate(-34.4285 103.609 80.2078)" fill="url(#paint0_linear_0_494)"/>
<path d="M41.1319 104.448C35.1993 110.891 28.4235 116.504 20.9883 121.133C22.9086 124.444 25.0452 127.832 27.3784 131.233C31.7042 137.54 36.2259 143.195 40.6179 147.937C47.2757 143.765 54.7432 139.47 62.6794 135.555C58.6463 131.078 54.5281 125.856 50.5737 120.091C47.1156 115.071 43.9626 109.847 41.1319 104.448V104.448Z" fill="#1B1B1B" stroke="#1B1B1B" stroke-width="0.7" stroke-linecap="round" stroke-linejoin="round"/>
<path d="M20.9879 121.133C17.6615 123.208 14.231 125.112 10.7099 126.836C2.51416 130.865 -1.12367 140.612 2.47594 149.029V149.029C6.75043 159.026 19.0863 162.545 27.9746 156.322C31.7173 153.701 35.9706 150.849 40.6176 147.937C36.2256 143.195 31.7038 137.54 27.3781 131.233C25.0449 127.832 22.9082 124.444 20.9879 121.133Z" fill="white" stroke="#1B1B1B" stroke-width="0.7" stroke-linecap="round" stroke-linejoin="round"/>
<path d="M75.6763 42.5486C69.3072 59.0109 63.0776 72.4977 56.3795 83.7088C51.6086 91.6943 46.599 98.5243 41.1318 104.448C43.9626 109.847 47.1155 115.071 50.5737 120.091C54.5281 125.856 58.6463 131.078 62.6794 135.555C70.0697 131.909 77.8663 128.595 85.7952 126.014C101.678 120.846 118.089 118.629 132.822 122.637L75.6763 42.5486Z" fill="white"/>
<path fill-rule="evenodd" clip-rule="evenodd" d="M75.6763 42.5486C69.3072 59.0109 63.0776 72.4977 56.3795 83.7088C51.6086 91.6943 46.599 98.5243 41.1318 104.448C43.9626 109.847 47.1155 115.071 50.5737 120.091C54.5281 125.856 58.6463 131.078 62.6794 135.555C70.0697 131.909 77.8663 128.595 85.7952 126.014C101.678 120.846 118.089 118.629 132.822 122.637L75.6763 42.5486Z" stroke="#1B1B1B" stroke-width="0.7" stroke-linecap="round" stroke-linejoin="round"/>
<ellipse cx="103.609" cy="80.2077" rx="18.7266" ry="53.2424" transform="rotate(-34.4189 103.609 80.2077)" fill="white" stroke="#1B1B1B" stroke-width="0.7" stroke-linecap="round" stroke-linejoin="round"/>
<ellipse cx="103.609" cy="80.2078" rx="13.8785" ry="47.4582" transform="rotate(-34.4285 103.609 80.2078)" fill="white"/>
<mask id="mask21_0_494" style="mask-type:alpha" maskUnits="userSpaceOnUse" x="74" y="40" width="59" height="81">
<ellipse cx="103.609" cy="80.2076" rx="13.8785" ry="47.4582" transform="rotate(-34.4285 103.609 80.2076)" fill="white"/>
</mask>
<g mask="url(#mask21_0_494)">
<path d="M103.594 109.899L93.2906 117.02C83.1428 124.033 69.2523 121.461 62.2653 111.275V111.275C55.2783 101.089 57.8406 87.1458 67.9885 80.1324L72.9875 76.6775L78.2921 73.0113C88.4399 65.9978 102.33 68.5699 109.317 78.756V78.756C116.305 88.9422 113.742 102.885 103.594 109.899Z" fill="#1B1B1B"/>
<mask id="mask22_0_494" style="mask-type:alpha" maskUnits="userSpaceOnUse" x="58" y="69" width="56" height="52">
<path fill-rule="evenodd" clip-rule="evenodd" d="M103.594 109.899L93.2906 117.02C83.1428 124.033 69.2523 121.461 62.2653 111.275V111.275C55.2783 101.089 57.8406 87.1458 67.9885 80.1324L72.9875 76.6775L78.2921 73.0113C88.4399 65.9978 102.33 68.5699 109.317 78.756V78.756C116.305 88.9422 113.742 102.885 103.594 109.899Z" fill="white"/>
</mask>
<g mask="url(#mask22_0_494)">
<path d="M91.024 64.372C81.041 86.6 113.121 118.12 113.121 118.12L72.9883 76.6774L79.4074 59.9993H91.0241" fill="white"/>
</g>
<path fill-rule="evenodd" clip-rule="evenodd" d="M103.594 109.899L93.2906 117.02C83.1428 124.033 69.2523 121.461 62.2653 111.275V111.275C55.2783 101.089 57.8406 87.1458 67.9885 80.1324L72.9875 76.6775L78.2921 73.0113C88.4399 65.9978 102.33 68.5699 109.317 78.756V78.756C116.305 88.9422 113.742 102.885 103.594 109.899Z" stroke="#1B1B1B" stroke-width="0.7" stroke-linecap="round" stroke-linejoin="round"/>
</g>
<ellipse cx="103.609" cy="80.2078" rx="13.8785" ry="47.4582" transform="rotate(-34.4285 103.609 80.2078)" stroke="#1B1B1B" stroke-width="0.7" stroke-linecap="round" stroke-linejoin="round"/>
<path d="M104.514 81.1821L106.011 86.5138" stroke="#1B1B1B" stroke-width="0.7" stroke-linecap="round" stroke-linejoin="round"/>
<path d="M16.8262 137.08C16.8047 138.133 17.143 139.162 17.7853 139.997" stroke="#1B1B1B" stroke-width="0.7" stroke-linecap="round" stroke-linejoin="round"/>
<defs>
<linearGradient id="paint0_linear_0_494" x1="87.5541" y1="130.324" x2="118.324" y2="130.734" gradientUnits="userSpaceOnUse">
<stop stop-color="#FFFEFF"/>
<stop offset="1" stop-color="#C5EFFE"/>
</linearGradient>
</defs>
</svg>
