<svg width="172" height="168" viewBox="0 0 172 168" fill="none" xmlns="http://www.w3.org/2000/svg">
<path fill-rule="evenodd" clip-rule="evenodd" d="M86 0C38.5022 0 0 38.5589 0 86.138C0 124.187 24.639 156.464 58.8154 167.852C63.115 168.646 64.681 165.985 64.681 163.704C64.681 161.666 64.612 156.24 64.569 149.06C40.6436 154.261 35.5954 137.509 35.5954 137.509C31.691 127.565 26.0494 124.912 26.0494 124.912C18.2406 119.573 26.6428 119.677 26.6428 119.677C35.2686 120.281 39.8094 128.55 39.8094 128.55C47.4806 141.717 59.942 137.915 64.835 135.703C65.627 130.148 67.845 126.347 70.305 124.195C51.213 122.027 31.132 114.631 31.132 81.628C31.132 72.228 34.486 64.53 39.9814 58.516C39.0956 56.3393 36.1458 47.5787 40.8242 35.725C40.8242 35.725 48.0482 33.4096 64.474 44.5548C71.491 42.6369 78.728 41.6579 86 41.6432C93.31 41.6778 100.663 42.6281 107.534 44.5461C123.952 33.401 131.159 35.7164 131.159 35.7164C135.854 47.57 132.896 56.3307 132.019 58.508C137.523 64.521 140.859 72.219 140.859 81.619C140.859 114.709 120.744 121.992 101.592 124.126C104.679 126.779 107.423 132.031 107.423 140.075C107.423 151.583 107.319 160.871 107.319 163.696C107.319 166.003 108.867 168.681 113.236 167.843C147.378 156.439 172 124.178 172 86.129C172 38.5588 133.489 0 86 0Z" fill="#FE633D"/>
</svg>
