<svg width="173" height="173" viewBox="0 0 173 173" fill="none" xmlns="http://www.w3.org/2000/svg">
<path fill-rule="evenodd" clip-rule="evenodd" d="M86.313 172.625C133.982 172.625 172.625 133.982 172.625 86.313C172.625 38.6435 133.982 0 86.313 0C38.6435 0 0 38.6435 0 86.313C0 133.982 38.6435 172.625 86.313 172.625Z" fill="#FE633D"/>
<path fill-rule="evenodd" clip-rule="evenodd" d="M141.47 136.704H119.794V99.786C119.794 89.664 115.948 84.007 107.937 84.007C99.221 84.007 94.668 89.894 94.668 99.786V136.704H73.778V66.375H94.668V75.849C94.668 75.849 100.948 64.227 115.873 64.227C130.79 64.227 141.47 73.336 141.47 92.176V136.704ZM48.8576 57.1664C41.7423 57.1664 35.9766 51.3554 35.9766 44.1887C35.9766 37.0219 41.7423 31.2109 48.8576 31.2109C55.9729 31.2109 61.735 37.0219 61.735 44.1887C61.735 51.3554 55.9729 57.1664 48.8576 57.1664ZM38.0713 136.704H59.853V66.375H38.0713V136.704Z" fill="#191919"/>
</svg>
