<svg width="498" height="128" viewBox="0 0 498 128" fill="none" xmlns="http://www.w3.org/2000/svg">
<path d="M34.2875 64.1528C42.8464 55.8878 53.9964 51.9297 65.045 52.209C63.4982 47.8027 61.0319 43.645 57.5727 40.0627C44.7262 26.7594 23.5273 26.389 10.225 39.2345C-3.07839 52.081 -3.44878 73.2798 9.39769 86.5832C12.8569 90.1654 16.925 92.7745 21.2755 94.4752C21.3824 83.4236 25.7275 72.4187 34.2875 64.1528Z" fill="#FE633D"/>
<path d="M64.264 93.3104C55.999 84.7515 52.041 73.6015 52.3232 62.55C47.914 64.0997 43.7562 66.566 40.174 70.0252C26.8706 82.8717 26.5002 104.071 39.3457 117.373C52.1922 130.676 73.3911 131.047 86.6944 118.2C90.2767 114.741 92.8858 110.673 94.5895 106.319C83.5349 106.216 72.53 101.87 64.264 93.3104Z" fill="#FC8064"/>
<path d="M118.201 41.0109C114.742 37.4286 110.674 34.8196 106.321 33.1159C106.217 44.1704 101.871 55.1754 93.3115 63.4413C84.7525 71.7063 73.6025 75.6644 62.5511 75.3821C64.1007 79.7914 66.567 83.9491 70.0262 87.5314C82.8727 100.835 104.072 101.205 117.374 88.3596C130.677 75.5131 131.048 54.3143 118.201 41.0109Z" fill="#F99E89"/>
<path d="M63.5526 34.2875C71.8175 42.8464 75.7756 53.9964 75.4963 65.045C79.9026 63.4982 84.0603 61.0319 87.6426 57.5727C100.946 44.7262 101.316 23.5273 88.4708 10.225C75.6244 -3.07839 54.4255 -3.44878 41.1221 9.39769C37.5399 12.8569 34.9308 16.925 33.2301 21.2755C44.2817 21.3824 55.2866 25.7275 63.5526 34.2875Z" fill="#F7BAAD"/>
<path d="M165.174 77.0622V47.5569H161.481V41.3374H165.938L167.7 29.0046H173.92V41.3374H181.519V47.5569H173.92V77.8264C173.92 78.8594 174.016 79.6943 174.21 80.3311C174.408 80.9632 174.679 81.4585 175.023 81.817C175.368 82.1708 175.771 82.4066 176.233 82.5246C176.696 82.6378 177.179 82.6944 177.684 82.6944C178.538 82.6944 179.292 82.5906 179.948 82.3831C180.604 82.1755 181.231 81.8878 181.83 81.5198V86.3595C181.321 86.9822 180.774 87.4893 180.189 87.8808C179.599 88.2723 178.995 88.5884 178.377 88.8289C177.755 89.0695 177.12 89.237 176.474 89.3313C175.828 89.4209 175.193 89.4657 174.571 89.4657C173.354 89.4657 172.179 89.3054 171.047 88.9846C169.92 88.6591 168.92 88.0435 168.047 87.1379C167.17 86.2275 166.471 84.9656 165.953 83.3524C165.434 81.7392 165.174 79.6424 165.174 77.0622ZM187.497 88.9138V41.3374H193.886L194.65 46.1772C195.617 44.3799 196.728 43.0332 197.983 42.137C199.238 41.236 200.521 40.7855 201.832 40.7855C204.342 40.7855 206.196 41.5568 207.394 43.0993C208.592 44.6465 209.191 46.9625 209.191 50.0475C209.191 50.439 209.163 50.906 209.106 51.4485C209.049 51.9862 208.969 52.5499 208.865 53.1395C208.762 53.7245 208.634 54.3117 208.483 54.9014C208.332 55.4863 208.177 56.0217 208.016 56.5075H201.938V52.0853C201.938 51.1183 201.875 50.3235 201.747 49.7008C201.62 49.0782 201.453 48.5781 201.245 48.2008C201.037 47.8187 200.797 47.5522 200.523 47.4012C200.245 47.255 199.945 47.1819 199.625 47.1819C198.931 47.1819 198.292 47.406 197.707 47.8541C197.118 48.3022 196.627 48.9296 196.235 49.7362V88.9138H187.497ZM210.986 88.9138V84.5623L224.323 47.9744H212.132V41.3374H233.684V45.696L220.318 82.2769H233.755V88.9138H210.986ZM247.472 85.7723L247.748 91.6096V104.289H239.009V41.3374H245.852L246.644 46.347C247.036 45.7054 247.503 45.0498 248.045 44.3799C248.583 43.7101 249.215 43.1181 249.941 42.604C250.668 42.0851 251.486 41.6582 252.396 41.3233C253.307 40.9884 254.326 40.8209 255.453 40.8209C255.939 40.8209 256.522 40.8681 257.201 40.9624C257.88 41.0521 258.581 41.2808 259.302 41.6488C260.029 42.0167 260.755 42.5639 261.482 43.2903C262.208 44.0167 262.852 45.0144 263.413 46.2833C263.979 47.5475 264.442 49.1253 264.8 51.0169C265.154 52.9037 265.331 55.1938 265.331 57.8873V72.2932C265.331 74.9914 265.154 77.2839 264.8 79.1707C264.442 81.0576 263.975 82.6354 263.399 83.9043C262.824 85.1732 262.168 86.1756 261.432 86.9114C260.691 87.6473 259.941 88.1992 259.182 88.5671C258.423 88.9351 257.687 89.1709 256.974 89.2747C256.257 89.3785 255.635 89.4304 255.106 89.4304C253.267 89.4304 251.729 89.0742 250.493 88.3619C249.262 87.6497 248.255 86.7864 247.472 85.7723ZM247.748 50.4579V79.2061C247.932 79.6684 248.156 80.1047 248.42 80.5151C248.684 80.9302 248.995 81.3005 249.354 81.626C249.712 81.9467 250.116 82.2062 250.564 82.4043C251.012 82.5977 251.536 82.6944 252.135 82.6944C252.781 82.6944 253.368 82.5741 253.896 82.3335C254.43 82.0929 254.892 81.6543 255.283 81.0175C255.675 80.3854 255.979 79.5056 256.196 78.3783C256.413 77.2462 256.522 75.7957 256.522 74.0268V55.8141C256.522 54.0405 256.413 52.5947 256.196 51.4768C255.979 50.3636 255.68 49.4838 255.297 48.8376C254.915 48.1913 254.46 47.7527 253.932 47.5215C253.404 47.2951 252.816 47.1819 252.17 47.1819C251.066 47.1819 250.163 47.5097 249.46 48.1654C248.757 48.8211 248.186 49.5852 247.748 50.4579ZM277.876 34.5307C276.262 34.5307 274.989 34.0472 274.055 33.0802C273.126 32.1132 272.661 30.6981 272.661 28.8348C272.661 27.7971 272.781 26.9268 273.022 26.2239C273.262 25.5211 273.607 24.9574 274.055 24.5329C274.508 24.1083 275.055 23.797 275.696 23.5989C276.343 23.4055 277.081 23.3088 277.911 23.3088C279.637 23.3088 280.949 23.7451 281.845 24.6178C282.746 25.4951 283.197 26.9008 283.197 28.8348C283.197 30.632 282.741 32.0306 281.831 33.0307C280.921 34.0307 279.602 34.5307 277.876 34.5307ZM273.347 88.9138V41.3374H282.093V88.9138H273.347ZM303.199 89.4304C302.185 89.4304 301.154 89.3502 300.107 89.1898C299.06 89.0294 298.045 88.6945 297.064 88.1851C296.088 87.6803 295.168 86.9563 294.305 86.0128C293.442 85.0694 292.687 83.8241 292.041 82.2769C291.394 80.7344 290.887 78.8358 290.519 76.581C290.151 74.3216 289.967 71.6258 289.967 68.4936V61.0359C289.967 57.9462 290.159 55.3023 290.541 53.1042C290.918 50.906 291.434 49.0569 292.09 47.5569C292.746 46.0616 293.512 44.8705 294.39 43.9837C295.267 43.0969 296.194 42.4176 297.17 41.9459C298.152 41.4742 299.159 41.1629 300.192 41.012C301.229 40.861 302.244 40.7855 303.234 40.7855C304.178 40.7855 305.156 40.8563 306.171 40.9978C307.185 41.1346 308.175 41.4271 309.142 41.8752C310.109 42.3233 311.025 42.9908 311.888 43.8776C312.751 44.7644 313.51 45.9578 314.166 47.4578C314.826 48.9531 315.345 50.8117 315.723 53.0334C316.105 55.2552 316.296 57.9227 316.296 61.0359V68.4936C316.296 71.5833 316.1 74.2437 315.709 76.4749C315.317 78.7108 314.786 80.6 314.117 82.1425C313.447 83.685 312.675 84.935 311.803 85.8926C310.925 86.8454 310.003 87.5883 309.036 88.1214C308.069 88.6497 307.086 89.0011 306.086 89.1756C305.081 89.3455 304.119 89.4304 303.199 89.4304ZM303.27 82.6944C304.053 82.6944 304.715 82.4939 305.258 82.0929C305.796 81.6873 306.232 81.0245 306.567 80.1047C306.902 79.1849 307.145 77.9702 307.296 76.4608C307.442 74.9513 307.515 73.0786 307.515 70.8427V59.1326C307.515 56.8967 307.442 55.0193 307.296 53.5004C307.145 51.9815 306.902 50.7551 306.567 49.8211C306.232 48.8871 305.796 48.2126 305.258 47.7975C304.715 47.3871 304.053 47.1819 303.27 47.1819C302.439 47.1819 301.741 47.3871 301.175 47.7975C300.614 48.2126 300.149 48.8871 299.781 49.8211C299.413 50.7551 299.147 51.9815 298.982 53.5004C298.821 55.0193 298.741 56.8967 298.741 59.1326V70.8427C298.741 73.0786 298.821 74.9513 298.982 76.4608C299.147 77.9702 299.413 79.1849 299.781 80.1047C300.149 81.0245 300.614 81.6873 301.175 82.0929C301.741 82.4939 302.439 82.6944 303.27 82.6944ZM333.155 89.4657C332.626 89.4657 332.004 89.4138 331.287 89.3101C330.574 89.2063 329.839 88.9704 329.079 88.6025C328.32 88.2346 327.57 87.6827 326.829 86.9468C326.093 86.2062 325.438 85.1968 324.862 83.9185C324.287 82.6401 323.82 81.0576 323.461 79.1707C323.107 77.2839 322.93 74.9914 322.93 72.2932V57.201C322.93 54.5264 323.119 52.2693 323.496 50.4296C323.879 48.5852 324.379 47.0592 324.996 45.8517C325.619 44.6394 326.317 43.6936 327.091 43.0144C327.86 42.3351 328.631 41.8351 329.405 41.5143C330.178 41.1888 330.916 40.9931 331.619 40.927C332.317 40.8563 332.898 40.8209 333.36 40.8209C334.214 40.8209 335.02 40.9365 335.78 41.1676C336.539 41.3988 337.23 41.703 337.853 42.0804C338.476 42.4625 339.027 42.8894 339.509 43.3611C339.994 43.8328 340.398 44.3116 340.719 44.7974L340.754 44.762L340.478 38.7478V26.0683H349.181V88.9138H342.381L341.617 84.4916C341.226 85.1142 340.777 85.7251 340.273 86.3242C339.763 86.9232 339.164 87.4586 338.476 87.9303C337.782 88.402 336.999 88.777 336.126 89.0554C335.249 89.3289 334.258 89.4657 333.155 89.4657ZM336.126 82.6944C336.702 82.6944 337.214 82.5977 337.662 82.4043C338.11 82.2062 338.513 81.9514 338.872 81.6401C339.23 81.3288 339.542 80.9656 339.806 80.5505C340.07 80.1354 340.294 79.7108 340.478 79.2769V50.6702C340.039 49.7032 339.457 48.88 338.73 48.2008C338.009 47.5215 337.129 47.1819 336.091 47.1819C335.445 47.1819 334.858 47.2951 334.329 47.5215C333.801 47.7527 333.341 48.1843 332.949 48.8164C332.558 49.4532 332.251 50.3305 332.03 51.4485C331.813 52.5617 331.704 54.0051 331.704 55.7788V74.0268C331.704 75.7957 331.813 77.2462 332.03 78.3783C332.251 79.5056 332.558 80.3854 332.949 81.0175C333.341 81.6543 333.806 82.0929 334.343 82.3335C334.886 82.5741 335.48 82.6944 336.126 82.6944ZM369.638 89.4304C367.586 89.4304 365.772 89.0506 364.197 88.2912C362.617 87.5317 361.286 86.3454 360.206 84.7322C359.121 83.1189 358.303 81.0528 357.751 78.5339C357.199 76.0103 356.923 72.9748 356.923 69.4276V60.4487C356.923 57.4297 357.147 54.8424 357.595 52.6867C358.043 50.5357 358.631 48.7291 359.357 47.2668C360.084 45.8045 360.926 44.6465 361.883 43.7927C362.836 42.9389 363.82 42.2879 364.834 41.8398C365.848 41.3917 366.855 41.1039 367.855 40.9766C368.86 40.8492 369.787 40.7855 370.636 40.7855C372.202 40.7855 373.711 41.0214 375.164 41.4931C376.617 41.9648 377.895 42.7714 378.999 43.913C380.103 45.0545 380.985 46.5805 381.645 48.4909C382.301 50.4013 382.629 52.7858 382.629 55.6443C382.629 56.6113 382.601 57.5901 382.544 58.5807C382.483 59.5713 382.407 60.543 382.318 61.4958C382.223 62.4534 382.103 63.3827 381.957 64.2836C381.806 65.1799 381.65 66.0077 381.49 66.7672H365.697V71.6069C365.697 73.6777 365.777 75.4206 365.938 76.8358C366.103 78.2556 366.374 79.3971 366.751 80.2604C367.133 81.1236 367.652 81.7463 368.308 82.1283C368.964 82.5057 369.787 82.6944 370.777 82.6944C371.306 82.6944 371.824 82.5859 372.334 82.3689C372.839 82.1472 373.282 81.784 373.664 81.2793C374.041 80.7698 374.346 80.0953 374.577 79.2556C374.808 78.416 374.924 77.3735 374.924 76.1282V74.6423H382.211V76.4749C382.211 80.9892 381.136 84.277 378.985 86.3383C376.829 88.3997 373.714 89.4304 369.638 89.4304ZM365.697 60.8944H374.471C374.494 60.6397 374.518 60.3001 374.541 59.8755C374.565 59.451 374.584 59.0076 374.598 58.5453C374.608 58.083 374.612 57.6278 374.612 57.1797C374.612 56.7316 374.612 56.3472 374.612 56.0264C374.612 52.8895 374.244 50.6324 373.508 49.255C372.768 47.8729 371.673 47.1819 370.225 47.1819C369.466 47.1819 368.798 47.3588 368.223 47.7126C367.647 48.0711 367.173 48.6701 366.801 49.5098C366.433 50.3494 366.157 51.4603 365.973 52.8424C365.789 54.2245 365.697 55.9415 365.697 57.9934V60.8944ZM388.155 78.9655C388.155 77.9278 388.254 76.9254 388.452 75.9584C388.645 74.9914 388.834 74.2202 389.018 73.6447H395.167C395.167 75.3711 395.254 76.8169 395.428 77.982C395.603 79.1424 395.886 80.0693 396.277 80.7627C396.669 81.4514 397.193 81.9467 397.848 82.2486C398.504 82.5458 399.303 82.6944 400.247 82.6944C401.558 82.6944 402.513 82.3264 403.112 81.5906C403.712 80.8547 404.011 80.0033 404.011 79.0363C404.011 78.5268 403.943 78.041 403.806 77.5787C403.669 77.1211 403.473 76.6565 403.219 76.1848C402.964 75.7131 402.653 75.2343 402.285 74.7485C401.917 74.2673 401.502 73.7366 401.039 73.1564L394.65 65.628C393.82 64.5902 393.02 63.536 392.251 62.4652C391.478 61.3944 390.799 60.2883 390.214 59.1467C389.624 58.0099 389.15 56.8189 388.791 55.5736C388.438 54.3283 388.261 53.0145 388.261 51.6324C388.261 49.7928 388.577 48.1937 389.209 46.8352C389.841 45.4767 390.692 44.3469 391.763 43.446C392.834 42.5497 394.072 41.8823 395.478 41.4436C396.884 41.0049 398.369 40.7855 399.935 40.7855C401.662 40.7855 403.216 40.9931 404.598 41.4082C405.98 41.8233 407.167 42.4459 408.157 43.2761C409.148 44.1064 409.91 45.137 410.443 46.3682C410.971 47.5993 411.235 49.0333 411.235 50.6702C411.235 51.774 411.136 52.8447 410.938 53.8825C410.745 54.9202 410.556 55.8071 410.372 56.5429H404.322C404.299 54.9769 404.23 53.6065 404.117 52.432C404.004 51.2574 403.792 50.2834 403.48 49.5098C403.169 48.7409 402.742 48.1607 402.2 47.7692C401.657 47.3776 400.95 47.1819 400.077 47.1819C399.318 47.1819 398.683 47.3022 398.174 47.5427C397.669 47.7833 397.261 48.0994 396.95 48.4909C396.638 48.8824 396.419 49.3211 396.292 49.8069C396.164 50.2881 396.101 50.7834 396.101 51.2928C396.101 52.3966 396.365 53.4202 396.893 54.3636C397.426 55.307 398.129 56.333 399.002 57.4415L405.985 65.628C406.49 66.2507 407.077 67.0054 407.747 67.8922C408.412 68.779 409.044 69.7578 409.643 70.8286C410.242 71.8994 410.749 73.0668 411.164 74.331C411.58 75.5999 411.787 76.9254 411.787 78.3075C411.787 79.9868 411.523 81.5127 410.995 82.8854C410.462 84.2534 409.679 85.4232 408.646 86.3949C407.608 87.3619 406.334 88.1096 404.825 88.6379C403.315 89.1662 401.594 89.4304 399.66 89.4304C398.07 89.4304 396.572 89.2535 395.167 88.8997C393.761 88.5412 392.541 87.9539 391.508 87.1379C390.471 86.3171 389.652 85.2392 389.053 83.9043C388.454 82.5694 388.155 80.9231 388.155 78.9655ZM423.326 34.5307C421.713 34.5307 420.44 34.0472 419.506 33.0802C418.576 32.1132 418.112 30.6981 418.112 28.8348C418.112 27.7971 418.232 26.9268 418.473 26.2239C418.713 25.5211 419.057 24.9574 419.506 24.5329C419.958 24.1083 420.506 23.797 421.147 23.5989C421.793 23.4055 422.532 23.3088 423.362 23.3088C425.088 23.3088 426.4 23.7451 427.296 24.6178C428.197 25.4951 428.647 26.9008 428.647 28.8348C428.647 30.632 428.192 32.0306 427.282 33.0307C426.371 34.0307 425.053 34.5307 423.326 34.5307ZM418.798 88.9138V41.3374H427.543V88.9138H418.798ZM437.598 92.1615H443.782C443.782 94.2135 444.161 95.664 444.921 96.513C445.68 97.3668 446.855 97.7937 448.444 97.7937C449.091 97.7937 449.711 97.6947 450.305 97.4966C450.904 97.3032 451.43 96.947 451.883 96.4281C452.331 95.9093 452.692 95.1899 452.966 94.2701C453.244 93.3503 453.383 92.1639 453.383 90.711V83.2109C452.6 84.2251 451.593 85.0954 450.362 85.8218C449.131 86.5482 447.605 86.9114 445.784 86.9114C445.256 86.9114 444.633 86.8596 443.916 86.7558C443.204 86.652 442.468 86.4161 441.708 86.0482C440.949 85.6803 440.199 85.1213 439.458 84.3713C438.723 83.6213 438.067 82.6142 437.491 81.35C436.916 80.0811 436.449 78.4962 436.09 76.5952C435.737 74.6942 435.56 72.397 435.56 69.7036V57.201C435.56 54.6207 435.737 52.4249 436.09 50.6136C436.449 48.8069 436.916 47.2927 437.491 46.071C438.067 44.854 438.73 43.8988 439.48 43.2054C440.225 42.5167 440.984 41.9931 441.758 41.6346C442.532 41.2761 443.286 41.0521 444.022 40.9624C444.758 40.8681 445.414 40.8209 445.989 40.8209C447.14 40.8209 448.159 40.9719 449.046 41.2738C449.933 41.5709 450.704 41.9672 451.36 42.4625C452.02 42.9577 452.579 43.5167 453.036 44.1394C453.499 44.762 453.89 45.3847 454.211 46.0073L455.011 41.3021H461.81V86.9822C461.81 89.6285 461.558 92.0177 461.053 94.1498C460.548 96.2772 459.754 98.0956 458.669 99.6051C457.588 101.115 456.213 102.273 454.544 103.079C452.874 103.886 450.874 104.289 448.544 104.289C446.977 104.289 445.503 104.15 444.121 103.872C442.739 103.598 441.532 103.11 440.499 102.407C439.461 101.704 438.642 100.747 438.043 99.5343C437.444 98.3268 437.145 96.7914 437.145 94.9281C437.145 94.6026 437.18 94.1993 437.251 93.7182C437.317 93.2323 437.432 92.7134 437.598 92.1615ZM448.756 80.1401C449.331 80.1401 449.843 80.041 450.291 79.8429C450.739 79.6495 451.143 79.3901 451.501 79.0646C451.86 78.7438 452.171 78.3759 452.435 77.9608C452.699 77.5457 452.923 77.1188 453.107 76.6801V50.6702C452.669 49.7032 452.086 48.88 451.36 48.2008C450.638 47.5215 449.758 47.1819 448.72 47.1819C448.074 47.1819 447.487 47.2951 446.959 47.5215C446.43 47.7527 445.97 48.1843 445.579 48.8164C445.187 49.4532 444.881 50.3305 444.659 51.4485C444.442 52.5617 444.334 54.0051 444.334 55.7788V71.43C444.334 73.2036 444.442 74.6565 444.659 75.7886C444.881 76.916 445.187 77.8028 445.579 78.449C445.97 79.0905 446.435 79.5316 446.973 79.7722C447.515 80.0174 448.11 80.1401 448.756 80.1401ZM470.971 88.9138V41.3374H477.707L478.499 46.4177V46.4531C479.192 45.3729 479.935 44.4696 480.728 43.7431C481.525 43.0167 482.348 42.4342 483.197 41.9955C484.051 41.5568 484.921 41.2455 485.808 41.0615C486.695 40.8775 487.575 40.7855 488.447 40.7855C491.235 40.7855 493.384 41.7596 494.893 43.7078C496.403 45.6512 497.157 48.5711 497.157 52.4674V88.9138H488.419V52.7787C488.419 50.6796 488.096 49.222 487.45 48.406C486.803 47.5899 485.858 47.1819 484.612 47.1819C483.74 47.1819 482.872 47.4696 482.009 48.0451C481.145 48.6206 480.379 49.4154 479.709 50.4296V88.9138H470.971Z" fill="#D7D3D1"/>
</svg>
